<svg width="75" height="75" viewBox="0 0 75 75" fill="none" xmlns="http://www.w3.org/2000/svg">
<g clip-path="url(#clip0_189_443)">
<path d="M37.4563 0.227295C16.8713 0.227295 0.183594 16.915 0.183594 37.5C0.183594 54.9794 12.2182 69.647 28.4527 73.6754V48.8906H20.7671V37.5H28.4527V32.5919C28.4527 19.9058 34.1942 14.0257 46.6493 14.0257C49.0109 14.0257 53.0855 14.4893 54.7524 14.9515V25.2761C53.8727 25.1836 52.3445 25.1374 50.4466 25.1374C44.3354 25.1374 41.9738 27.4528 41.9738 33.4716V37.5H54.1485L52.0568 48.8906H41.9738V74.4999C60.4297 72.271 74.7305 56.5568 74.7305 37.5C74.729 16.915 58.0413 0.227295 37.4563 0.227295Z" fill="white"/>
</g>
<defs>
<clipPath id="clip0_189_443">
<rect width="74.5455" height="74.5455" fill="white" transform="translate(0.183594 0.227295)"/>
</clipPath>
</defs>
</svg>
