<svg width="261" height="198" viewBox="0 0 261 198" fill="none" xmlns="http://www.w3.org/2000/svg">
<g clip-path="url(#clip0_206_103)">
<path d="M170.006 81.339C169.438 81.4211 168.859 81.3775 168.31 81.2112C167.76 81.0449 167.254 80.7599 166.826 80.3763C166.399 79.9927 166.06 79.5198 165.834 78.991C165.609 78.4621 165.501 77.8901 165.52 77.3152L152.496 72.2991L158.393 68.0715L169.857 73.483C170.819 73.5786 171.712 74.0246 172.368 74.7363C173.023 75.4481 173.396 76.3761 173.414 77.3446C173.432 78.3131 173.096 79.2547 172.467 79.991C171.839 80.7272 170.963 81.2069 170.006 81.3391L170.006 81.339Z" fill="#FFB7B7"/>
<path d="M162.565 77.7407L164.599 70.5518L164.498 70.4835L145.45 57.5155L128.984 40.9573L119.393 44.7979L120.022 47.8405L120.064 47.8779L141.956 67.5299L141.976 67.5397L162.565 77.7407Z" fill="#E6E7E8"/>
<path d="M143.05 94.1612L113.57 90.0197L116.165 71.8911H137.868L143.05 94.1612Z" fill="#FFB6B6"/>
<path d="M92.9609 182.932L99.0082 184.34L107.306 161.634L98.3813 159.556L92.9609 182.932Z" fill="#FFB6B6"/>
<path d="M87.334 192.689L91.6706 193.699L93.3961 189.776L94.4272 194.341L105.929 197.02C106.48 197.149 107.058 197.097 107.578 196.873C108.098 196.649 108.533 196.264 108.82 195.775C109.106 195.286 109.229 194.717 109.17 194.153C109.111 193.589 108.874 193.058 108.493 192.639L100.783 184.142L101.744 179.994L91.9494 178.322L87.334 192.689Z" fill="#2F2E41"/>
<path d="M130.273 186.309H136.482L139.436 162.31H130.273V186.309Z" fill="#FFB6B6"/>
<path d="M126.996 197.09H131.448L132.243 192.877L134.278 197.09H146.087C146.653 197.09 147.204 196.908 147.66 196.572C148.116 196.236 148.452 195.763 148.621 195.221C148.789 194.68 148.781 194.098 148.596 193.562C148.411 193.026 148.061 192.563 147.595 192.24L138.165 185.713V181.455L128.247 182.048L126.996 197.09Z" fill="#2F2E41"/>
<path d="M113.198 86.9436L142.028 84.6453C150.535 104.562 145.125 136.357 138.588 172.148L129.315 173.35L128.596 115.837L105.35 169.341L95.6855 168.846L113.198 86.9436Z" fill="#2F2E41"/>
<path d="M129.98 34.4973V24.7223C129.981 23.0016 129.643 21.2977 128.987 19.7078C128.331 18.1179 127.368 16.6731 126.154 15.4562C124.941 14.2392 123.5 13.2738 121.914 12.6151C120.327 11.9564 118.627 11.6174 116.911 11.6174C115.194 11.6174 113.494 11.9564 111.908 12.6151C110.322 13.2738 108.88 14.2392 107.667 15.4562C106.453 16.6731 105.491 18.1179 104.834 19.7078C104.178 21.2977 103.84 23.0016 103.841 24.7223C101.538 29.533 102.979 31.8201 103.841 34.4973C103.842 34.9635 104.027 35.4104 104.356 35.74C104.685 36.0697 105.131 36.2552 105.596 36.256H128.224C128.69 36.2554 129.136 36.07 129.465 35.7403C129.794 35.4106 129.979 34.9636 129.98 34.4973Z" fill="#2F2E41"/>
<path d="M120.135 36.1086C125.427 36.1086 129.717 31.8091 129.717 26.5053C129.717 21.2015 125.427 16.902 120.135 16.902C114.843 16.902 110.553 21.2015 110.553 26.5053C110.553 31.8091 114.843 36.1086 120.135 36.1086Z" fill="#FFB7B7"/>
<path d="M133.071 25.504C133.068 22.757 131.978 20.1234 130.04 18.181C128.101 16.2385 125.474 15.1459 122.733 15.1428H120.782C118.041 15.1459 115.413 16.2385 113.475 18.181C111.537 20.1234 110.446 22.757 110.443 25.504V25.6996C111.904 26.7006 113.291 26.847 114.566 25.6996L115.972 21.7538L116.253 25.6996H118.384L119.094 23.7089L119.236 25.6996C122.114 28.1561 127.557 26.9789 133.071 25.6996L133.071 25.504Z" fill="#2F2E41"/>
<path d="M114.548 77.1896L138.945 76.2592L140.308 60.2635C141.36 57.3357 141.377 54.8199 140.359 52.7915C139.483 51.1243 138.012 49.8497 136.239 49.2226L130.9 42.7607C130.214 41.9301 129.351 41.2629 128.376 40.8071C127.4 40.3513 126.336 40.1184 125.26 40.1252L111.388 40.2202C111.054 40.0188 109.026 38.9858 105.026 40.7227C100.688 42.607 101.696 49.1535 101.706 49.2193L101.716 49.2808L101.764 49.3227L110.99 57.1112L114.548 77.1896Z" fill="#E6E7E8"/>
<path d="M179.272 100.407C179.253 109.725 175.758 118.7 169.472 125.566C163.186 132.433 154.564 136.694 145.302 137.513C136.04 138.331 126.808 135.648 119.419 129.99C112.031 124.333 107.022 116.11 105.377 106.938C103.732 97.7668 105.569 88.3102 110.528 80.4276C115.487 72.545 123.209 66.8067 132.175 64.3407C141.142 61.8747 150.704 62.8594 158.983 67.1013C167.262 71.3432 173.658 78.5354 176.914 87.264C176.995 87.4832 177.074 87.7023 177.151 87.9236V87.9257C177.495 88.8985 177.798 89.8893 178.06 90.8983C178.867 94.003 179.274 97.1985 179.272 100.407Z" fill="#63C2C9"/>
<path d="M137.678 75.0555C135.993 74.1423 134.122 73.6269 132.208 73.5484C130.294 73.4699 128.388 73.8305 126.634 74.6027C125.09 75.2761 123.464 76.4843 122.949 78.6659C125.033 77.4337 127.729 79.3806 128.265 82.5037L128.14 82.5383C127.857 84.7016 128.489 87.0567 129.713 88.3981C129.804 87.7929 130.028 87.2155 130.37 86.708C130.711 86.2005 131.161 85.7756 131.687 85.4642C132.586 84.8718 133.58 84.4416 134.267 83.4234C135.08 82.2163 135.287 80.4522 135.61 78.8429C135.933 77.2336 136.546 75.5039 137.678 75.0555Z" fill="#70A054"/>
<path d="M126.016 93.4639C125.439 94.3323 124.668 94.8771 123.977 95.5556C123.179 96.2833 122.655 97.2645 122.494 98.334C122.406 99.0897 122.542 99.8579 122.523 100.622C122.504 101.386 122.25 102.246 121.731 102.436C120.913 102.732 120.288 101.208 119.447 101.102C118.778 101.019 118.176 102.073 118.37 102.987C118.563 103.901 119.474 104.306 119.996 103.709C120.469 104.505 120.136 105.947 119.426 106.191C119.351 106.692 119.276 107.191 119.203 107.692C117.407 106.433 115.593 105.154 114.066 103.311C112.368 101.278 111.315 98.7831 111.042 96.1463C110.844 94.0275 111.138 91.6039 110.167 89.9736C109.39 88.6689 108.057 88.3808 106.857 88.4622C106.639 88.4768 106.418 88.5019 106.199 88.529C106.907 86.3992 107.805 84.3381 108.884 82.3709C109.128 82.2658 109.355 82.1244 109.557 81.9512C110.673 81.0014 111.169 79.0788 112.075 77.7491C112.133 77.6635 112.194 77.58 112.256 77.4986C113.183 76.2858 114.425 75.6616 115.624 75.0813C118.28 73.7891 121.013 72.4803 123.816 72.6598L123.019 72.737C122.088 75.3506 121.156 77.9641 120.223 80.5777C120.082 80.9785 119.939 81.38 119.794 81.7822C119.265 83.2685 118.72 84.8508 118.801 86.5145C118.849 87.4998 119.19 88.552 119.84 88.8901C120.446 89.2032 121.109 88.8191 121.694 88.4392C121.942 88.2806 122.188 88.1219 122.435 87.9612C123.325 87.3871 124.31 86.7984 125.249 87.1825C126.11 87.5332 126.745 88.7043 126.866 89.9673C126.977 91.1949 126.678 92.4247 126.016 93.4639Z" fill="#70A054"/>
<path d="M131.307 111.307C128.709 109.704 126.112 108.101 123.514 106.499L123.558 106.385C121.943 107.001 121.272 109.878 121.539 112.231C121.806 114.584 122.711 116.688 123.169 118.98C123.785 122.118 123.552 125.363 122.495 128.38C125.91 124.539 128.933 120.365 131.518 115.919C131.879 115.359 132.154 114.747 132.334 114.105C132.525 113.421 132.457 112.69 132.143 112.053C131.931 111.739 131.643 111.482 131.307 111.307Z" fill="#70A054"/>
<path d="M121.054 82.1458C120.749 82.8022 120.702 83.5497 120.922 84.2392C121.178 84.7948 121.643 85.2264 122.216 85.44L123.651 86.153C124.128 86.3902 124.643 86.6298 125.13 86.4346C125.717 86.1992 126.124 85.2768 126.019 84.4204C125.907 83.5091 125.333 82.8823 124.803 82.3485C124.062 81.6014 123.32 80.8544 122.578 80.1074L122.16 80.6206C121.708 81.0626 121.334 81.5783 121.054 82.1458Z" fill="#70A054"/>
<path d="M171.578 91.8878C172.224 92.0402 172.869 92.1926 173.515 92.345C173.403 94.5306 172.321 96.5534 170.872 97.2861C170.268 97.5909 169.595 97.7036 169.095 98.2735C168.643 98.7912 168.414 99.597 168.204 100.367C167.835 101.712 167.466 103.056 167.098 104.4C166.702 105.849 166.194 107.459 165.165 107.98C164.281 108.429 163.271 107.88 162.592 106.96C161.913 106.039 161.499 104.801 161.097 103.595C161.122 104.91 160.511 106.2 159.647 106.657C158.781 107.114 157.727 106.701 157.148 105.68C156.731 104.947 156.558 103.981 156.15 103.238C155.742 102.494 154.886 102.069 154.44 102.766C154.146 103.229 154.184 103.939 154.038 104.528C153.964 104.918 153.771 105.277 153.485 105.552C153.199 105.828 152.835 106.008 152.442 106.066C152.081 106.058 151.726 105.976 151.397 105.826C151.069 105.675 150.775 105.46 150.532 105.191C149.257 103.884 148.426 102.206 148.16 100.396C147.979 99.5291 148.002 98.6316 148.226 97.7746C148.483 96.9626 149.101 96.3364 149.716 96.4908C150.12 95.6349 149.322 94.4993 148.603 94.5995C147.883 94.6997 147.318 95.4742 146.727 96.0691C146.137 96.664 145.312 97.0962 144.719 96.5054C144.732 96.7215 144.659 96.934 144.516 97.0962C144.373 97.2584 144.172 97.357 143.956 97.3703C143.935 97.3716 143.913 97.3721 143.892 97.3717C143.497 97.2581 143.13 97.0633 142.815 96.7997C141.455 95.9501 139.728 96.5137 138.762 98.1211C139.366 95.5451 140.251 92.5892 142.107 91.9838C142.865 91.7354 143.692 91.94 144.408 91.51C145.677 90.7481 145.933 87.8694 144.838 86.6816C144.977 87.8047 144.95 89.1156 144.358 89.8838C143.767 90.6521 142.526 90.151 142.601 89.0154C142.584 89.1752 142.517 89.3254 142.41 89.4447C142.302 89.5641 142.16 89.6463 142.003 89.6797C141.847 89.713 141.683 89.6958 141.537 89.6305C141.391 89.5652 141.268 89.4551 141.188 89.316C140.795 88.7148 140.828 87.7316 141.107 87.0135C141.395 86.3631 141.807 85.7758 142.321 85.2851C143.311 84.2226 144.315 83.1475 145.46 82.4795C146.608 81.8115 147.933 81.586 149.083 82.2499C149.689 82.6005 150.222 83.1851 150.841 83.494C150.986 83.5844 151.148 83.6452 151.316 83.673C151.485 83.7008 151.658 83.6949 151.824 83.6558C151.991 83.6167 152.148 83.5451 152.287 83.4451C152.426 83.3451 152.544 83.2187 152.634 83.073C152.641 83.0617 152.648 83.0504 152.655 83.0389C153.115 82.2289 152.898 81.0266 153.069 80.0141C153.375 78.2252 155.16 77.3881 156.15 78.5696C155.41 78.3796 154.646 79.2564 154.554 80.3189C154.461 81.3815 154.996 82.4544 155.712 82.7759C156.916 83.3103 158.095 81.9659 159.006 80.7218C159.955 79.4192 160.907 78.1173 161.859 76.8161C162.011 76.5945 162.182 76.3864 162.369 76.194C162.668 75.9026 163.065 75.7357 163.482 75.7272C163.899 75.7186 164.303 75.8691 164.613 76.1481C165.575 76.9351 166.027 78.5487 166.816 79.6593C167.962 81.2729 169.676 81.6653 171.272 81.9785C172.461 82.2102 173.651 82.4433 174.842 82.6778C175.636 84.1577 176.328 85.69 176.914 87.264C174.731 88.2619 172.879 89.8667 171.578 91.8878Z" fill="#70A054"/>
<path d="M178.06 90.8983C177.816 91.6192 177.682 92.373 177.664 93.134C176.643 91.8856 176.481 89.5456 177.151 87.9257C177.495 88.8984 177.798 89.8893 178.06 90.8983Z" fill="#70A054"/>
<path d="M175.423 117.005C174.53 118.821 173.492 120.561 172.319 122.209C171.569 121.887 170.763 122.461 170.061 123C169.328 123.564 168.447 124.113 167.695 123.599C166.926 123.073 166.679 121.601 166.922 120.434C167.202 119.358 167.692 118.348 168.364 117.462C168.988 116.527 169.657 115.556 170.526 115.193C171.396 114.829 172.515 115.343 172.769 116.583L173.385 116.562C173.04 116.086 173.221 115.101 173.685 114.928C174.221 114.725 174.685 115.462 175.002 116.113C175.143 116.408 175.287 116.704 175.423 117.005Z" fill="#70A054"/>
<path d="M151.81 108.187C150.485 108.271 149.436 106.636 148.738 105.027C148.04 103.419 147.404 101.579 146.208 100.761C145.525 100.293 144.746 100.229 144.005 100.002C143.585 99.8955 143.196 99.6903 142.87 99.4032C142.545 99.1161 142.292 98.7553 142.134 98.3509L141.293 98.0106C140.117 98.5997 139.041 99.3692 138.102 100.291C137.029 101.434 136.36 102.898 136.2 104.458C136.039 106.145 136.632 108.025 137.74 108.659C138.616 109.159 139.635 108.844 140.522 109.302C141.63 109.874 142.288 111.537 142.537 113.18C142.786 114.822 142.723 116.528 142.901 118.189C143.079 119.85 143.57 121.578 144.586 122.429C145.857 123.494 147.723 122.609 148.294 120.67C148.574 119.719 148.564 118.646 148.773 117.659C149.142 115.921 150.136 114.631 150.925 113.205C151.714 111.779 152.335 109.842 151.81 108.187Z" fill="#70A054"/>
<path d="M138.716 91.1048C138.839 91.2188 138.954 91.3415 139.061 91.472C139.171 91.6619 139.227 91.8782 139.223 92.0978C139.219 92.3173 139.156 92.5316 139.039 92.7176C139.199 92.7085 139.355 92.6663 139.498 92.5937C139.64 92.5211 139.766 92.4197 139.868 92.2958C140.109 92.0197 140.322 91.7194 140.502 91.3995C140.587 91.2899 140.648 91.1635 140.68 91.0287C140.712 90.8939 140.716 90.7538 140.69 90.6176C140.627 90.4385 140.479 90.3622 140.375 90.2275C140.231 89.9642 140.133 89.6783 140.085 89.3821C140.027 89.1044 139.894 88.8483 139.699 88.6426C139.504 88.4369 139.256 88.2897 138.982 88.2175L139.049 88.2303C138.936 88.2975 138.846 88.3985 138.793 88.5191C138.741 88.6397 138.727 88.7738 138.754 88.9028C138.794 89.1633 138.961 89.3795 138.944 89.6452C138.92 90.0273 138.539 90.2065 138.516 90.5886C138.512 90.7803 138.584 90.9657 138.716 91.1048Z" fill="#70A054"/>
<path d="M136.443 84.6127L136.449 84.6115C136.49 84.5743 136.528 84.534 136.562 84.4908L136.443 84.6127Z" fill="#6C63FF"/>
<path d="M136.841 86.4059C137 86.266 137.118 86.0848 137.181 85.8824C137.245 85.6799 137.251 85.4638 137.201 85.2578C137.104 84.8234 136.764 84.5313 136.449 84.6115C136.358 84.7042 136.245 84.7721 136.12 84.8088C135.996 84.8456 135.864 84.85 135.737 84.8216C135.543 84.7715 135.33 84.6424 135.161 84.7891C135.065 84.8987 134.997 85.0307 134.965 85.1731C134.903 85.3651 134.84 85.5569 134.778 85.7488C134.748 85.8175 134.74 85.8937 134.756 85.967C134.768 85.9963 134.787 86.0221 134.812 86.0418C134.836 86.0616 134.866 86.0746 134.897 86.0796C135.271 86.1902 135.646 86.3008 136.02 86.4113C136.149 86.4708 136.289 86.5012 136.431 86.5003C136.573 86.4993 136.713 86.4671 136.841 86.4059Z" fill="#70A054"/>
<path d="M165.095 111.164C164.922 110.88 164.749 110.596 164.576 110.312C164.406 109.983 164.174 109.691 163.892 109.451C163.831 109.4 163.761 109.361 163.685 109.338C163.609 109.314 163.529 109.305 163.45 109.312C163.37 109.319 163.293 109.342 163.223 109.378C163.152 109.415 163.089 109.466 163.038 109.527L163.029 109.538L163.05 109.7C163.514 110.198 163.829 110.815 163.962 111.483C164.001 111.773 163.988 112.073 164.022 112.364C164.026 112.499 164.056 112.632 164.111 112.756C164.166 112.879 164.245 112.99 164.343 113.083C164.615 113.266 164.935 112.997 165.129 112.669C165.302 112.399 165.38 112.079 165.35 111.76C165.306 111.546 165.22 111.343 165.095 111.164Z" fill="#70A054"/>
<path d="M167.808 111.533C167.841 111.267 167.82 110.997 167.745 110.74C167.733 110.392 167.825 110.049 168.009 109.754C168.193 109.476 168.331 109.171 168.421 108.85C168.459 108.703 168.452 108.549 168.401 108.407C168.344 108.278 168.205 108.219 168.126 108.321L168.296 108.431C168.066 108.39 167.83 108.401 167.605 108.465C167.477 108.514 167.362 108.593 167.271 108.696C167.18 108.799 167.115 108.923 167.081 109.056C167.053 109.264 167.007 109.47 166.944 109.67C166.842 109.879 166.646 109.949 166.522 110.132C166.438 110.295 166.396 110.476 166.399 110.66C166.402 110.843 166.45 111.023 166.54 111.183C166.695 111.444 166.941 111.639 167.232 111.728C167.44 111.803 167.713 111.807 167.808 111.533Z" fill="#70A054"/>
<path d="M172.641 112.994C172.716 113.19 172.817 113.376 172.94 113.545C173.172 113.779 173.486 113.635 173.767 113.578C174.022 113.538 174.282 113.568 174.522 113.664C174.761 113.76 174.97 113.919 175.126 114.125C175.017 113.581 174.78 113.071 174.434 112.638C174.087 112.205 173.642 111.861 173.136 111.637C172.478 111.408 171.785 111.3 171.09 111.316L170.971 111.346C171.274 112.23 172.225 112.21 172.641 112.994Z" fill="#70A054"/>
<path d="M152.172 114.801L152.174 114.805L152.208 114.739L152.172 114.801Z" fill="#6C63FF"/>
<path d="M151.439 116.224C151.279 116.515 151.141 116.817 151.027 117.129C150.877 117.634 150.777 118.154 150.729 118.679C150.692 118.977 150.681 119.359 150.867 119.504C150.921 119.54 150.986 119.555 151.049 119.546C151.113 119.537 151.171 119.506 151.214 119.457C151.317 119.347 151.402 119.221 151.465 119.083C151.832 118.45 152.117 117.772 152.312 117.067C152.517 116.318 152.468 115.523 152.174 114.805C151.929 115.278 151.684 115.751 151.439 116.224Z" fill="#70A054"/>
<path d="M144.366 78.3322C144.483 78.4463 144.63 78.5237 144.79 78.555C144.949 78.5862 145.115 78.5699 145.266 78.5081C145.578 78.3714 145.864 78.1818 146.112 77.9478C146.317 77.7955 146.492 77.6051 146.625 77.3869C146.699 77.2564 146.746 77.1127 146.764 76.964C146.782 76.8153 146.77 76.6645 146.73 76.5202C146.673 76.382 146.581 76.2607 146.464 76.1678C146.347 76.0749 146.208 76.0135 146.061 75.9894C145.645 75.8659 145.23 75.7425 144.814 75.6191L145.115 75.3476C144.806 75.1813 144.464 75.4899 144.271 75.872C144.147 76.1215 144.06 76.388 144.014 76.6629C143.948 76.9501 143.946 77.2481 144.007 77.5364C144.067 77.8246 144.19 78.0962 144.366 78.3322Z" fill="#70A054"/>
<path d="M151.701 75.8648C151.818 75.9941 151.98 76.074 152.153 76.0882C152.327 76.1023 152.5 76.0497 152.636 75.941C152.753 75.8527 152.851 75.7405 152.922 75.6118C152.993 75.4832 153.037 75.3409 153.05 75.1943C153.079 74.8668 152.917 74.5029 152.687 74.4746L152.74 74.168C152.295 74.0875 151.748 74.0714 151.51 74.6124C151.43 74.8196 151.405 75.0444 151.438 75.2641C151.472 75.4839 151.562 75.691 151.701 75.8648Z" fill="#70A054"/>
<path d="M107.918 108.678C107.491 108.293 107.153 107.82 106.928 107.291C106.704 106.762 106.597 106.189 106.617 105.615C106.637 105.04 106.782 104.476 107.042 103.964C107.303 103.451 107.672 103.002 108.124 102.648L103.619 89.4138L110.638 91.2412L113.837 103.528C114.381 104.329 114.612 105.302 114.487 106.263C114.363 107.224 113.89 108.105 113.16 108.74C112.43 109.375 111.493 109.72 110.526 109.708C109.56 109.697 108.631 109.33 107.916 108.678L107.918 108.678Z" fill="#FFB7B7"/>
<path d="M105.904 100.646L112.715 97.6047L110.427 74.5185L112.558 51.2393L103.465 46.3212L101.538 48.7557V48.811L100.518 78.2482L100.523 78.2704L105.904 100.646Z" fill="#E6E7E8"/>
</g>
<defs>
<clipPath id="clip0_206_103">
<rect width="260" height="197" fill="white" transform="translate(0.5 0.5)"/>
</clipPath>
</defs>
</svg>
