<svg width="428" height="196" viewBox="0 0 428 196" fill="none" xmlns="http://www.w3.org/2000/svg">
<path d="M38.3691 126.706L38.3692 94.2267C40.2392 82.1629 61.3051 67.9626 73.8999 67.3151L114.968 65.1402L131.284 38.4486C133.447 34.91 137.314 32.7491 141.484 32.7491H190.606C194.467 32.7491 197.73 35.5912 198.231 39.3914L199.478 60.7488L354.873 61.7472V106.426V112.322V125.778L305.084 126.829L298.85 109.333C297.677 106.039 292.533 102.324 287.187 99.2165C275.201 92.2493 259.803 94.4854 250.733 104.927C248.594 107.39 247.098 109.956 246.68 112.362L243.851 128.649L119.248 126.706L108.496 110.93L98.678 99.3306C93.3681 93.5951 69.6122 95.2003 67.3548 103.043L59.4072 126.706H38.3691Z" fill="#E6E6E6"/>
<path d="M180.781 48.9906L184.816 67.8698L133.482 68.9616L144.324 45.8565C145.308 43.7605 147.467 42.4592 149.794 42.5596L174.393 43.6212C177.506 43.7556 180.134 45.9642 180.781 48.9906Z" fill="white"/>
<path d="M126.516 67.5059L136.783 41.3019L134.095 38.6339L117.35 63.8664L120.752 68.9617L126.516 67.5059Z" fill="white"/>
<path d="M273.55 152.669C286.915 152.669 297.75 141.915 297.75 128.649C297.75 115.382 286.915 104.628 273.55 104.628C260.184 104.628 249.35 115.382 249.35 128.649C249.35 141.915 260.184 152.669 273.55 152.669Z" fill="#3F3D56"/>
<path d="M256.867 128.649C256.867 119.518 264.351 112.089 273.551 112.089C282.75 112.089 290.234 119.518 290.234 128.649C290.234 137.78 282.75 145.208 273.551 145.208C264.351 145.208 256.867 137.78 256.867 128.649ZM257.234 128.649C257.234 137.579 264.553 144.844 273.551 144.844C282.548 144.844 289.867 137.579 289.867 128.649C289.867 119.718 282.548 112.453 273.551 112.453C264.553 112.453 257.234 119.718 257.234 128.649Z" fill="white"/>
<path d="M259.25 128.649C259.25 136.488 265.652 142.842 273.55 142.842C281.448 142.842 287.85 136.488 287.85 128.649C287.85 120.81 281.448 114.455 273.55 114.455C265.652 114.455 259.25 120.81 259.25 128.649ZM282.845 125.25L280.312 126.889L279.338 125.406L282.845 125.25ZM278.988 133.586L279.663 131.948L281.788 134.722L278.988 133.586ZM272.501 139.203L274.283 136.201V139.203H272.501ZM272.501 121.824L274.283 118.822V121.824H272.501ZM264.579 134.722L266.704 131.948L267.378 133.586L264.579 134.722ZM263.521 125.25L267.028 125.406L266.055 126.889L263.521 125.25Z" fill="#E6E6E6"/>
<path d="M86.4109 153.403C99.7762 153.403 110.611 142.649 110.611 129.383C110.611 116.117 99.7762 105.363 86.4109 105.363C73.0456 105.363 62.2109 116.117 62.2109 129.383C62.2109 142.649 73.0456 153.403 86.4109 153.403Z" fill="#3F3D56"/>
<path d="M69.7285 129.383C69.7285 120.252 77.2126 112.823 86.4118 112.823C95.6111 112.823 103.095 120.252 103.095 129.383C103.095 138.514 95.6111 145.942 86.4118 145.942C77.2126 145.942 69.7285 138.514 69.7285 129.383ZM70.0952 129.383C70.0952 138.313 77.4147 145.578 86.4118 145.578C95.4089 145.578 102.728 138.313 102.728 129.383C102.728 120.453 95.4089 113.187 86.4118 113.187C77.4147 113.187 70.0952 120.453 70.0952 129.383Z" fill="white"/>
<path d="M72.1113 129.383C72.1113 137.222 78.5136 143.577 86.4113 143.577C94.309 143.577 100.711 137.222 100.711 129.383C100.711 121.544 94.309 115.189 86.4113 115.189C78.5136 115.189 72.1113 121.544 72.1113 129.383ZM95.7068 125.984L93.1731 127.623L92.1997 126.141L95.7068 125.984ZM91.8495 134.32L92.5243 132.682L94.6488 135.456L91.8495 134.32ZM85.3618 139.937L87.1446 136.935V139.937H85.3618ZM85.3618 122.558L87.1446 119.556V122.558H85.3618ZM77.4404 135.456L79.565 132.682L80.2397 134.32L77.4404 135.456ZM76.3825 125.984L79.8896 126.141L78.9162 127.623L76.3825 125.984Z" fill="#E6E6E6"/>
<path d="M171.434 77.5143H185.367V74.6027H171.434V77.5143Z" fill="#3F3D56"/>
<path d="M197.789 1.42798V61.7471H354.872V1.42798H197.789Z" fill="#E6E6E6"/>
<path d="M242.091 18.905C242.022 17.9475 241.925 17.1791 241.797 16.6C241.681 16.0201 241.537 15.5758 241.365 15.2671C241.193 14.9585 241.002 14.7581 240.792 14.666C240.593 14.5731 240.371 14.5354 240.127 14.5527C239.978 14.5632 239.813 14.5802 239.633 14.6036C239.463 14.6156 239.298 14.6326 239.139 14.6545C238.949 14.6787 238.763 14.7025 238.583 14.7259L239.224 23.6629C239.385 23.6623 239.556 23.6609 239.737 23.6587C239.887 23.6589 240.053 23.6578 240.234 23.6557C240.415 23.6429 240.591 23.6305 240.761 23.6185C241.006 23.6012 241.224 23.5109 241.415 23.3477C241.617 23.1837 241.775 22.9213 241.888 22.5604C242.011 22.1881 242.089 21.7068 242.121 21.1164C242.164 20.5146 242.154 19.7774 242.091 18.905ZM243.504 18.6929C243.589 19.8845 243.59 20.8682 243.507 21.644C243.433 22.4085 243.274 23.0185 243.028 23.4743C242.794 23.9293 242.48 24.2562 242.088 24.455C241.695 24.6432 241.233 24.7561 240.701 24.7936C240.392 24.8154 240.073 24.8327 239.742 24.8454C239.423 24.8679 239.124 24.8783 238.846 24.8766C238.525 24.8779 238.215 24.8784 237.916 24.8782L237.114 13.7069C237.4 13.6653 237.691 13.6233 237.988 13.581C238.242 13.5417 238.517 13.5115 238.815 13.4904C239.123 13.458 239.415 13.432 239.692 13.4125C240.256 13.3726 240.756 13.4068 241.191 13.515C241.626 13.6126 242.001 13.8534 242.318 14.2374C242.633 14.6108 242.886 15.1543 243.076 15.868C243.276 16.5703 243.419 17.512 243.504 18.6929ZM247.102 20.7003C247.15 21.2208 247.218 21.6438 247.306 21.9691C247.403 22.283 247.517 22.5263 247.647 22.6989C247.777 22.8715 247.924 22.984 248.088 23.0366C248.251 23.0785 248.434 23.0923 248.636 23.0781C249.083 23.0465 249.486 22.9913 249.844 22.9125C250.211 22.8224 250.516 22.7421 250.757 22.6716L250.839 23.8206C250.589 23.9132 250.269 23.9946 249.878 24.065C249.499 24.1452 249.166 24.1955 248.878 24.2158C248.421 24.2482 248.008 24.2292 247.639 24.159C247.281 24.0881 246.969 23.9176 246.704 23.6477C246.439 23.3777 246.223 22.9812 246.057 22.4583C245.891 21.9247 245.775 21.2111 245.711 20.3174C245.659 19.5832 245.672 18.9514 245.752 18.4218C245.842 17.8914 245.998 17.4527 246.219 17.1056C246.44 16.7585 246.726 16.4977 247.077 16.3232C247.428 16.1486 247.843 16.0445 248.322 16.0106C249.237 15.946 249.913 16.203 250.35 16.7816C250.797 17.3488 251.059 18.1591 251.134 19.2124L251.22 20.4093L247.102 20.7003ZM248.371 17.146C248.116 17.164 247.9 17.2167 247.725 17.3039C247.549 17.3912 247.41 17.5294 247.305 17.7185C247.201 17.9077 247.129 18.1588 247.087 18.4718C247.044 18.7742 247.029 19.1549 247.04 19.6139L249.817 19.4177L249.787 18.9868C249.743 18.3804 249.613 17.9137 249.397 17.5868C249.192 17.2591 248.85 17.1122 248.371 17.146ZM256.011 23.5193C255.896 23.5489 255.759 23.5853 255.602 23.6285C255.455 23.6709 255.276 23.6996 255.063 23.7147C254.903 23.726 254.742 23.7106 254.578 23.6687C254.415 23.6268 254.264 23.5412 254.127 23.4119C253.989 23.2826 253.869 23.1039 253.767 22.8759C253.665 22.6372 253.6 22.337 253.574 21.9752L252.901 12.5914L254.258 12.4955L254.925 21.7996C254.945 22.0762 254.991 22.2708 255.063 22.3833C255.146 22.4844 255.293 22.5275 255.506 22.5125C255.591 22.5064 255.67 22.4902 255.743 22.4636C255.827 22.4363 255.889 22.4159 255.931 22.4022L256.011 23.5193ZM257.148 13.7349L257.045 12.2985L258.562 12.1914L258.665 13.6277L257.148 13.7349ZM257.927 23.4642L257.354 15.4847L258.711 15.3888L259.283 23.3683L257.927 23.4642ZM265.238 22.9476L263.275 23.0863L260.548 15.259L262 15.1564L264.215 21.881L265.4 14.9162L266.804 14.8169L265.238 22.9476ZM269.842 19.0934C269.891 19.614 269.958 20.037 270.046 20.3623C270.143 20.6762 270.257 20.9194 270.387 21.092C270.517 21.2646 270.664 21.3772 270.828 21.4298C270.992 21.4717 271.174 21.4855 271.377 21.4712C271.823 21.4396 272.226 21.3845 272.584 21.3057C272.952 21.2156 273.256 21.1353 273.497 21.0648L273.579 22.2138C273.329 22.3063 273.009 22.3878 272.618 22.4582C272.239 22.5384 271.906 22.5887 271.619 22.609C271.161 22.6413 270.748 22.6224 270.379 22.5522C270.021 22.4813 269.71 22.3108 269.444 22.0408C269.179 21.7709 268.963 21.3744 268.798 20.8515C268.631 20.3179 268.516 19.6042 268.452 18.7105C268.399 17.9764 268.412 17.3446 268.492 16.815C268.582 16.2846 268.738 15.8459 268.959 15.4988C269.18 15.1517 269.466 14.8908 269.817 14.7163C270.168 14.5418 270.583 14.4377 271.062 14.4038C271.977 14.3392 272.653 14.5961 273.09 15.1748C273.537 15.742 273.799 16.5523 273.874 17.6056L273.96 18.8025L269.842 19.0934ZM271.111 15.5392C270.856 15.5572 270.641 15.6099 270.465 15.6971C270.29 15.7844 270.15 15.9226 270.046 16.1117C269.942 16.3008 269.869 16.5519 269.827 16.865C269.785 17.1674 269.769 17.5481 269.781 18.0071L272.558 17.8109L272.527 17.38C272.483 16.7735 272.354 16.3069 272.138 15.9799C271.932 15.6523 271.59 15.5053 271.111 15.5392ZM276.443 22.1558L275.87 14.1763L276.988 14.0974L277.142 14.9045C277.303 14.6151 277.51 14.3759 277.764 14.1869C278.018 13.9979 278.342 13.8894 278.735 13.8616C278.927 13.8481 279.093 13.8471 279.232 13.8586C279.371 13.8594 279.49 13.8671 279.587 13.8816L279.689 15.302C279.548 15.2799 279.386 15.2592 279.203 15.2401C279.031 15.2202 278.87 15.2155 278.721 15.226C278.455 15.2448 278.235 15.3138 278.062 15.433C277.899 15.5514 277.766 15.7052 277.662 15.8943C277.568 16.0721 277.502 16.2745 277.465 16.5017C277.438 16.7175 277.432 16.9318 277.447 17.1446L277.799 22.06L276.443 22.1558ZM285.126 22.248C285.063 22.5626 284.993 22.8509 284.915 23.113C284.839 23.3858 284.732 23.6179 284.596 23.8092C284.471 23.9999 284.3 24.151 284.083 24.2625C283.878 24.384 283.616 24.4559 283.297 24.4785C283.127 24.4905 282.956 24.4919 282.784 24.4827C282.612 24.4734 282.478 24.4615 282.38 24.447L282.297 23.282C282.415 23.295 282.544 23.302 282.683 23.3028C282.822 23.3037 282.972 23.2985 283.131 23.2872C283.429 23.2662 283.625 23.0117 283.718 22.524L283.911 21.6282L283.591 21.6507L280.545 13.846L282.013 13.7423L284.338 20.2025L285.429 13.5009L286.817 13.4028L285.126 22.248Z" fill="#606060"/>
<path d="M289.039 85.1357C289.012 84.8727 288.92 84.621 288.773 84.4037C288.626 84.1865 288.428 84.0107 288.198 83.8924C288.004 83.8075 287.795 83.7635 287.585 83.7631C287.374 83.7627 287.165 83.806 286.971 83.8902C286.777 83.9745 286.601 84.098 286.454 84.2535C286.307 84.409 286.193 84.5933 286.116 84.7954L278.612 101.024L276.922 164.926H279.625L280.639 101.167L288.897 86.1429C289.047 85.8309 289.096 85.4784 289.039 85.1357Z" fill="#3F3D56"/>
<path d="M413.266 178.628C410.548 180.642 407.622 182.443 404.523 184.011C404.474 184.069 404.42 184.123 404.361 184.173C404.032 184.41 403.641 184.576 403.221 184.658C392.943 189.515 381.359 192.036 369.593 191.979H141.56C115.431 189.701 99.4883 186.68 99.4883 183.364C99.4883 180.794 109.061 178.4 125.542 176.395C127.251 176.184 129.033 175.98 130.888 175.784C132.03 175.662 133.199 175.544 134.393 175.432L136.421 175.231C137.925 175.086 139.469 174.944 141.054 174.806H141.182L142.841 174.665C144.243 174.542 145.674 174.426 147.134 174.314L150.904 174.029C152.662 173.895 154.46 173.768 156.296 173.646C157.819 173.545 159.367 173.444 160.941 173.343C176.892 172.341 195.281 171.585 215.293 171.096L221.008 170.931L226.997 170.819L230.339 170.762L237.282 170.667L240.223 170.632H240.824C247.778 170.562 254.862 170.526 262.076 170.523C276.334 170.523 290.162 170.667 303.338 170.942C310.903 171.096 318.237 171.293 325.34 171.532H325.407C345.887 172.215 364.218 173.22 379.389 174.468L379.667 174.493C383.562 174.813 387.249 175.154 390.708 175.506C393.964 175.836 397.02 176.184 399.857 176.54C400.84 176.663 401.794 176.789 402.723 176.912L402.959 176.947C406.891 177.485 410.342 178.034 413.266 178.628Z" fill="#8C8C8C"/>
<path d="M405.575 184.426C405.535 184.483 405.49 184.536 405.441 184.585C405.167 184.818 404.842 184.981 404.492 185.062C403.794 185.258 403.076 185.374 402.352 185.408H402.134C401.721 185.422 401.307 185.408 400.895 185.366C400.595 185.323 400.291 185.303 399.988 185.308H399.946C399.505 185.37 399.071 185.477 398.652 185.629C397.718 185.885 396.756 186.023 395.787 186.037H395.442C394.359 186.037 393.261 185.999 392.174 186.006C391.998 186.006 391.829 186.006 391.646 186.006C389.782 186.054 387.929 186.352 386.065 186.383H385.468C383.642 186.338 381.775 185.947 380.322 184.841C380.029 184.647 379.791 184.38 379.632 184.067C379.508 183.736 379.467 183.38 379.511 183.03C379.546 182.404 379.666 181.723 380.136 181.301C380.431 181.075 380.769 180.911 381.13 180.821C381.761 180.617 382.396 180.42 383.028 180.223C383.66 180.026 384.381 179.815 385.061 179.614L385.192 179.573L385.572 179.459L385.817 179.376C386.114 179.28 386.399 179.15 386.666 178.989C387.018 178.765 387.316 178.467 387.539 178.114C387.577 178.052 387.618 177.986 387.653 177.92C387.687 177.855 387.653 177.813 387.629 177.758C387.57 177.326 387.525 176.883 387.449 176.462C386.478 176.236 385.592 175.734 384.899 175.017C384.303 174.425 383.801 173.745 383.411 173.001C382.552 171.383 382.11 169.576 381.468 167.858C380.484 165.244 379.052 162.831 377.609 160.439C376.291 158.234 374.966 156.021 373.468 153.937C372.47 152.554 371.397 151.237 370.41 149.851C367.618 145.983 365.615 141.601 364.515 136.957C364.347 136.066 364.108 135.19 363.801 134.337C363.207 132.885 362.12 131.703 361.278 130.375C360.373 128.944 359.753 127.351 359.452 125.684C359.28 124.737 358.99 123.714 358.047 123.61L357.947 123.807C355.994 127.61 353.989 131.481 351.045 134.586C350.574 135.042 350.143 135.538 349.757 136.069C349.448 136.583 349.171 137.116 348.929 137.666C348.463 138.652 347.845 139.558 347.096 140.352C346.874 140.577 346.631 140.782 346.372 140.964C346.027 141.215 345.643 141.407 345.236 141.534C345.076 141.583 344.912 141.62 344.746 141.645C344.746 141.686 344.763 141.724 344.767 141.766C344.77 141.807 344.788 141.855 344.794 141.9C345.302 144.666 345.085 147.516 344.163 150.172C344.139 150.255 344.111 150.335 344.08 150.418C343.937 150.805 343.782 151.185 343.614 151.559C343.193 152.475 342.693 153.353 342.299 154.283C342.234 154.442 342.168 154.601 342.109 154.76C340.729 158.462 341.074 162.596 340.895 166.575C340.879 167.445 340.776 168.311 340.587 169.161C340.353 170.118 339.976 171.107 339.769 172.096C339.581 172.837 339.565 173.612 339.725 174.36L339.642 174.391C339.272 174.529 338.896 174.654 338.52 174.771V174.823C338.655 175.597 338.786 176.372 338.92 177.143C339.034 177.806 339.169 178.525 339.631 178.995C339.757 179.099 339.873 179.215 339.976 179.341C340.249 179.77 340.008 180.337 340.059 180.845C340.135 181.564 340.798 182.176 340.694 182.891C340.648 183.105 340.55 183.304 340.409 183.472C340.268 183.639 340.089 183.77 339.887 183.852C339.717 183.929 339.538 183.986 339.355 184.022L339.241 184.046C339.034 184.084 338.827 184.105 338.62 184.125C336.049 184.381 333.443 184.637 330.896 184.201C330.392 184.115 329.892 184.001 329.381 183.959C328.736 183.931 328.089 183.957 327.448 184.039C322.723 184.487 317.971 184.579 313.232 184.315C312 184.246 310.585 184.046 309.933 182.991C309.391 182.117 309.588 180.987 309.86 179.988C309.938 179.62 310.08 179.269 310.278 178.95C310.3 178.916 310.326 178.884 310.354 178.854C310.989 178.062 312.183 178.014 313.212 178.045L316.573 178.145C316.904 178.172 317.237 178.146 317.56 178.069C318.106 177.91 318.52 177.474 319.03 177.229C319.672 176.921 320.48 176.883 320.943 176.358L321.001 176.282C321.083 176.17 321.159 176.055 321.229 175.936C321.229 175.912 321.26 175.888 321.277 175.864C321.29 175.842 321.304 175.821 321.319 175.801C321.743 175.241 322.485 175.055 323.089 174.699C323.181 174.645 323.267 174.584 323.348 174.515L323.417 174.453C322.767 173.988 322.2 173.417 321.74 172.763C321.562 172.572 321.431 172.342 321.357 172.092C321.314 171.904 321.329 171.708 321.398 171.529C321.413 171.485 321.431 171.442 321.453 171.401L321.471 171.366C321.705 170.903 322.188 170.485 322.454 170.011C322.464 169.996 322.472 169.98 322.478 169.963C322.844 169.271 322.917 168.2 322.375 167.643C322.651 163.091 323.9 158.655 324.176 154.089C324.287 152.281 324.242 150.466 324.325 148.651C324.408 146.837 324.601 145.077 324.805 143.297C325.26 139.228 326.365 135.242 326.209 131.157C326.196 130.776 326.212 130.394 326.258 130.016C326.256 129.988 326.256 129.96 326.258 129.933C326.368 129.096 326.629 128.285 327.027 127.541C327.527 126.699 328.094 125.899 328.722 125.149C330.844 122.383 333.395 119.618 334.151 116.216C334.541 114.46 335.403 112.853 336.263 111.273C336.77 110.333 337.298 109.368 338.109 108.677C338.548 108.372 338.957 108.025 339.328 107.64C339.894 106.907 339.914 105.894 340.249 105.023C340.422 104.57 340.687 104.155 340.819 103.689C340.819 103.64 340.843 103.595 340.853 103.547C340.93 103.076 340.97 102.6 340.974 102.123C340.974 101.984 340.995 101.85 341.012 101.715C341.213 100.348 341.61 99.0176 342.189 97.7637C342.261 97.6047 342.33 97.4422 342.399 97.2832C340.807 96.3527 339.402 95.1322 338.258 93.6846C337.87 93.2163 337.533 92.7075 337.253 92.1671C336.542 90.7532 336.38 89.1424 336.045 87.5937C335.245 83.9018 333.412 80.4243 333.157 76.6494C333.081 75.4983 333.157 74.3092 332.756 73.2203C332.646 72.9259 332.516 72.6395 332.366 72.363C332.304 72.2455 332.246 72.1279 332.183 72.0173L332.114 71.8859L331.938 71.5403L331.655 71.7615C324.595 77.299 317.182 82.3705 309.463 86.9438L308.801 87.3379C308.456 87.5046 308.155 87.7511 307.924 88.0569C307.897 88.1019 307.872 88.1468 307.848 88.1917C307.69 88.5201 307.648 88.8831 307.503 89.2288C307.193 90.0204 306.395 90.5251 305.581 90.7602C304.107 91.1397 302.544 90.938 301.215 90.1967C301.046 90.1103 300.87 90.0204 300.718 89.9202C300.314 90.1442 299.889 90.3261 299.448 90.4629C298.067 90.8639 296.621 90.8466 295.192 90.8431C293.764 90.8397 292.304 90.8431 290.951 91.3133C290.046 91.6209 289.17 92.1291 288.231 92.1775C288.123 92.1844 288.015 92.1844 287.907 92.1775C287.371 92.116 286.851 91.9628 286.367 91.7246L286.084 91.5967C285.938 91.5271 285.795 91.4498 285.656 91.3651C285.505 91.2717 285.365 91.1616 285.239 91.0367C285.056 90.853 284.923 90.6258 284.852 90.3765C284.806 90.1962 284.806 90.0071 284.852 89.8268C284.866 89.7459 284.907 89.6724 284.97 89.6194C285.031 89.5829 285.102 89.5649 285.173 89.5676C285.569 89.5632 285.964 89.5968 286.354 89.6678C286.582 89.6992 286.813 89.7119 287.044 89.7058H287.168C287.372 89.6839 287.568 89.6205 287.747 89.5194C287.925 89.4183 288.08 89.2818 288.203 89.1182C288.241 89.0676 288.272 89.0117 288.293 88.9522C288.335 88.8551 288.356 88.7504 288.355 88.6446C288.357 88.6181 288.357 88.5916 288.355 88.5651C288.21 88.4994 288.065 88.4337 287.927 88.3542C287.855 88.3162 287.786 88.2747 287.717 88.2332L287.675 88.2056C287.551 88.1212 287.436 88.0251 287.33 87.9187C287.263 87.8521 287.204 87.7778 287.154 87.6974C287.063 87.5722 286.994 87.4318 286.951 87.2826C286.666 87.2231 286.372 87.2314 286.091 87.3068C285.715 87.4105 285.335 87.6317 284.963 87.7078C284.775 87.7552 284.577 87.7468 284.393 87.6836C283.855 87.49 283.665 86.8332 283.551 86.2698C283.53 86.1626 283.506 86.052 283.489 85.9414C283.449 85.7289 283.449 85.5109 283.489 85.2984C283.656 84.8154 283.974 84.3995 284.397 84.1127L285.529 83.1621L285.612 83.0929C285.612 82.9996 285.574 82.9063 285.56 82.8129C285.52 82.5993 285.52 82.3802 285.56 82.1665C285.727 81.6844 286.045 81.2696 286.467 80.9843L288.973 78.8722C289.442 78.4781 289.953 78.0633 290.564 78.0218C291.472 77.9596 292.197 78.7132 292.877 79.3181C293.732 80.0786 294.771 80.7008 295.914 80.7769C296.458 80.8018 297.002 80.7268 297.519 80.5556L297.812 80.4589C297.75 80.3309 297.688 80.203 297.629 80.0751C297.529 79.8643 297.429 79.65 297.332 79.4356C298.802 79.3423 300.138 78.5334 301.253 77.5655C302.368 76.5976 303.324 75.4534 304.449 74.5028C305.664 73.4657 307.058 72.6948 308.29 71.6958C311.155 69.3694 313.056 65.9506 316.121 63.9007C317.184 63.1851 318.413 62.6148 319.137 61.5501C319.362 61.2044 319.531 60.8587 319.762 60.513C320.497 59.476 321.757 58.9989 322.796 58.2799C323.835 57.5609 324.739 56.5066 325.585 55.4937C326.185 54.7713 326.789 54.0488 327.362 53.3056C327.89 52.3204 328.335 51.2902 328.887 50.3189C329.356 49.4982 329.903 48.7249 330.52 48.0097C330.661 47.7332 330.806 47.4566 330.962 47.187C331.117 46.9174 331.231 46.7341 331.376 46.4956C331.476 46.3401 331.579 46.1914 331.686 46.0393C331.372 45.4828 331.072 45.0023 330.931 44.7914L330.862 44.6981C330.557 44.3733 330.232 44.0684 329.888 43.7855C329.527 43.7308 329.17 43.6546 328.818 43.5573C326.688 42.9726 324.809 41.7026 323.471 39.9429C322.133 38.1833 321.409 36.0316 321.412 33.8195C321.41 33.8092 321.41 33.7987 321.412 33.7884C321.413 32.2042 321.789 30.6428 322.509 29.2323C322.654 28.9488 322.81 28.6757 322.979 28.4096C322.821 28.3597 322.668 28.2973 322.52 28.2229C322.268 28.0986 322.048 27.9176 321.878 27.694C321.737 27.4949 321.646 27.2649 321.612 27.0234C321.554 26.4536 321.639 25.8783 321.861 25.3503C321.955 25.0961 322.062 24.8469 322.182 24.6036C322.191 24.5894 322.199 24.5743 322.206 24.5587C323.748 21.4475 327.038 19.5359 330.323 19.4011C333.868 19.2594 337.319 20.9256 340.115 23.3108C340.949 23.9963 341.695 24.7823 342.337 25.651C343.797 27.6836 344.456 30.2832 344.65 32.8585C344.722 33.655 344.708 34.4571 344.608 35.2506C344.572 35.5334 344.514 35.813 344.436 36.0872C344.391 36.2496 344.332 36.4121 344.27 36.5746C344.208 36.737 344.17 36.8096 344.115 36.9203V36.9375C344.063 37.0482 344.004 37.1519 343.945 37.2556L343.914 37.3005L343.87 37.3731C343.897 37.4388 343.928 37.5079 343.959 37.5736C343.99 37.6393 344.018 37.7015 344.052 37.7637H344.094C344.784 37.819 345.423 37.9158 346.127 37.9711C346.458 37.9869 346.786 38.0379 347.107 38.1232C347.797 38.3306 348.318 38.8353 348.898 39.2432C350.334 40.2595 352.101 40.7331 353.512 41.784C355.583 43.3326 356.619 45.8907 357.875 48.1826C359.532 51.2522 362.23 53.8656 363.421 57.1495C363.96 58.6406 364.5 60.1293 365.043 61.6158C366.103 64.5299 367.162 67.4578 368.602 70.2059C370.603 74.0292 373.313 77.4652 374.917 81.4821C375.077 81.8846 375.376 82.216 375.76 82.4154C377.946 85.5084 379.891 88.7664 381.575 92.1602C382.462 93.9543 383.301 95.8175 383.56 97.8052C383.761 99.5749 383.615 101.367 383.128 103.08C382.853 104.098 382.515 105.098 382.117 106.074C381.962 106.416 381.846 106.774 381.772 107.142C381.772 107.18 381.772 107.218 381.772 107.256C381.703 107.92 381.955 108.577 382.024 109.24C382.081 109.775 382.021 110.315 381.848 110.824C381.82 110.903 381.789 110.983 381.758 111.062C381.544 111.466 381.363 111.887 381.216 112.32C381.204 112.373 381.194 112.426 381.188 112.479C381.075 113.229 381.371 113.987 381.534 114.737C382.141 117.447 382.031 120.268 381.879 123.033C381.799 124.416 382.914 125.525 383.846 126.545C385.572 128.457 386.921 130.693 388.222 132.92C388.932 134.05 389.53 135.247 390.007 136.494C390.5 137.918 390.697 139.425 390.969 140.901C391.85 145.464 394.724 149.495 395.504 154.068C395.866 156.163 396.788 158.119 398.172 159.731C398.589 160.162 398.974 160.624 399.322 161.113C399.562 161.503 399.753 161.921 399.891 162.358C400.23 163.374 400.39 164.442 400.364 165.514C400.309 166.027 400.338 166.545 400.45 167.049C400.775 168.11 401.934 168.694 402.414 169.693C402.894 170.692 402.562 171.971 402.759 173.105C402.913 174.019 403.406 174.841 404.14 175.407C403.864 175.649 403.574 175.87 403.277 176.099C403.551 176.312 403.792 176.566 403.991 176.852C404.127 177.044 404.243 177.249 404.336 177.464C404.792 178.525 404.806 179.787 405.178 180.921C405.337 181.391 405.562 181.889 405.424 182.366C405.364 182.502 405.325 182.647 405.306 182.794C405.306 183.106 405.631 183.31 405.755 183.593C405.8 183.735 405.807 183.887 405.776 184.033C405.744 184.18 405.675 184.315 405.575 184.426Z" fill="url(#paint0_linear_206_42)"/>
<path d="M333.046 49.2456C335.122 48.6745 336.97 47.4806 338.781 46.3004L345.094 42.1994C343.381 42.0609 341.902 40.815 341.024 39.3061C340.145 37.7972 339.782 36.0426 339.484 34.3191C336.77 35.3989 334.419 37.2296 332.228 39.1642C331.36 39.9291 329.515 41.085 329.247 42.279C328.979 43.4729 330.688 44.442 331.35 45.2414C331.577 45.5079 333.717 49.0552 333.046 49.2456Z" fill="#FBBEBE"/>
<path d="M333.046 49.2456C335.122 48.6745 336.97 47.4806 338.781 46.3004L345.094 42.1994C343.381 42.0609 341.902 40.815 341.024 39.3061C340.145 37.7972 339.782 36.0426 339.484 34.3191C336.77 35.3989 334.419 37.2296 332.228 39.1642C331.36 39.9291 329.515 41.085 329.247 42.279C328.979 43.4729 330.688 44.442 331.35 45.2414C331.577 45.5079 333.717 49.0552 333.046 49.2456Z" fill="black"/>
<path d="M297.673 83.5769C296.521 84.1684 295.296 84.774 294.007 84.6895C292.848 84.6156 291.791 83.9854 290.92 83.2143C290.218 82.6017 289.494 81.8377 288.571 81.9011C287.953 81.9433 287.433 82.3623 286.956 82.7601L284.41 84.8972C283.981 85.186 283.657 85.6059 283.486 86.0943C283.436 86.4257 283.456 86.7641 283.546 87.0871C283.662 87.6575 283.855 88.3229 284.403 88.5166C284.95 88.7102 285.547 88.2947 286.127 88.1363C286.481 88.0456 286.853 88.0523 287.203 88.1558C287.553 88.2593 287.87 88.4557 288.118 88.7243C288.325 88.9283 288.45 89.2014 288.469 89.4918C288.469 90.1291 287.767 90.548 287.121 90.5797C286.474 90.6114 285.856 90.4002 285.217 90.4389C285.179 90.434 285.14 90.4369 285.102 90.4474C285.065 90.4579 285.03 90.4759 284.999 90.5001C284.969 90.5244 284.944 90.5546 284.925 90.5888C284.906 90.623 284.895 90.6606 284.891 90.6994C284.851 90.9218 284.868 91.1506 284.94 91.3648C285.012 91.5789 285.136 91.7715 285.302 91.9247C285.635 92.23 286.024 92.4689 286.446 92.6288C286.938 92.8723 287.468 93.0272 288.013 93.0865C289.091 93.1569 290.081 92.5584 291.103 92.2098C292.479 91.7451 293.961 91.731 295.415 91.7345C296.869 91.7381 298.344 91.7592 299.738 91.3508C301.132 90.9424 302.456 90.0375 303 88.6891C303.064 88.5633 303.085 88.4197 303.06 88.2807C303.005 88.1324 302.901 88.0078 302.765 87.9286C300.805 86.4745 300.012 84.7071 297.806 83.6614L297.673 83.5769Z" fill="#FBBEBE"/>
<path d="M297.673 83.5769C296.521 84.1684 295.296 84.774 294.007 84.6895C292.848 84.6156 291.791 83.9854 290.92 83.2143C290.218 82.6017 289.494 81.8377 288.571 81.9011C287.953 81.9433 287.433 82.3623 286.956 82.7601L284.41 84.8972C283.981 85.186 283.657 85.6059 283.486 86.0943C283.436 86.4257 283.456 86.7641 283.546 87.0871C283.662 87.6575 283.855 88.3229 284.403 88.5166C284.95 88.7102 285.547 88.2947 286.127 88.1363C286.481 88.0456 286.853 88.0523 287.203 88.1558C287.553 88.2593 287.87 88.4557 288.118 88.7243C288.325 88.9283 288.45 89.2014 288.469 89.4918C288.469 90.1291 287.767 90.548 287.121 90.5797C286.474 90.6114 285.856 90.4002 285.217 90.4389C285.179 90.434 285.14 90.4369 285.102 90.4474C285.065 90.4579 285.03 90.4759 284.999 90.5001C284.969 90.5244 284.944 90.5546 284.925 90.5888C284.906 90.623 284.895 90.6606 284.891 90.6994C284.851 90.9218 284.868 91.1506 284.94 91.3648C285.012 91.5789 285.136 91.7715 285.302 91.9247C285.635 92.23 286.024 92.4689 286.446 92.6288C286.938 92.8723 287.468 93.0272 288.013 93.0865C289.091 93.1569 290.081 92.5584 291.103 92.2098C292.479 91.7451 293.961 91.731 295.415 91.7345C296.869 91.7381 298.344 91.7592 299.738 91.3508C301.132 90.9424 302.456 90.0375 303 88.6891C303.064 88.5633 303.085 88.4197 303.06 88.2807C303.005 88.1324 302.901 88.0078 302.765 87.9286C300.805 86.4745 300.012 84.7071 297.806 83.6614L297.673 83.5769Z" fill="black"/>
<path d="M338.138 46.1807C337.603 45.8342 336.997 45.6157 336.364 45.5419C335.732 45.4681 335.092 45.5411 334.492 45.7551C333.291 46.1894 332.214 46.9102 331.352 47.8554C330.492 48.736 329.747 49.7232 329.136 50.7931C328.55 51.8311 328.102 52.9176 327.516 53.9522C326.482 55.8033 325.131 57.4365 323.774 59.0558C322.929 60.0627 322.074 61.0835 320.992 61.8239C319.91 62.5644 318.7 63.0177 317.966 64.0453C317.735 64.3706 317.57 64.7374 317.343 65.0661C316.622 66.1249 315.399 66.6923 314.334 67.4016C311.28 69.4431 309.381 72.841 306.528 75.1558C305.297 76.1523 303.909 76.9343 302.699 77.9515C301.572 78.8962 300.631 80.0276 299.507 80.9965C298.384 81.9653 297.064 82.7646 295.599 82.8545C296.578 85.0448 297.746 87.1935 299.425 88.8994C301.103 90.6052 303.619 91.6952 305.911 91.0274C306.724 90.7921 307.52 90.2938 307.831 89.5049C307.928 89.0994 308.064 88.7043 308.237 88.325C308.467 88.0205 308.766 87.7751 309.109 87.6087C318.309 82.217 327.079 76.117 335.34 69.3635C337.556 67.5504 339.754 65.9276 342.029 64.1734C342.845 63.5926 343.599 62.9294 344.28 62.1942C345.228 61.0569 345.821 59.6633 345.983 58.1888C346.145 56.7143 345.869 55.2246 345.189 53.9072C344.58 52.8993 343.881 51.9485 343.101 51.0664C341.683 49.2126 340.012 47.568 338.138 46.1807Z" fill="#DAA658"/>
<path d="M338.138 46.1807C337.603 45.8342 336.997 45.6157 336.364 45.5419C335.732 45.4681 335.092 45.5411 334.492 45.7551C333.291 46.1894 332.214 46.9102 331.352 47.8554C330.492 48.736 329.747 49.7232 329.136 50.7931C328.55 51.8311 328.102 52.9176 327.516 53.9522C326.482 55.8033 325.131 57.4365 323.774 59.0558C322.929 60.0627 322.074 61.0835 320.992 61.8239C319.91 62.5644 318.7 63.0177 317.966 64.0453C317.735 64.3706 317.57 64.7374 317.343 65.0661C316.622 66.1249 315.399 66.6923 314.334 67.4016C311.28 69.4431 309.381 72.841 306.528 75.1558C305.297 76.1523 303.909 76.9343 302.699 77.9515C301.572 78.8962 300.631 80.0276 299.507 80.9965C298.384 81.9653 297.064 82.7646 295.599 82.8545C296.578 85.0448 297.746 87.1935 299.425 88.8994C301.103 90.6052 303.619 91.6952 305.911 91.0274C306.724 90.7921 307.52 90.2938 307.831 89.5049C307.928 89.0994 308.064 88.7043 308.237 88.325C308.467 88.0205 308.766 87.7751 309.109 87.6087C318.309 82.217 327.079 76.117 335.34 69.3635C337.556 67.5504 339.754 65.9276 342.029 64.1734C342.845 63.5926 343.599 62.9294 344.28 62.1942C345.228 61.0569 345.821 59.6633 345.983 58.1888C346.145 56.7143 345.869 55.2246 345.189 53.9072C344.58 52.8993 343.881 51.9485 343.101 51.0664C341.683 49.2126 340.012 47.568 338.138 46.1807Z" fill="black"/>
<path d="M322.986 174.643C322.387 174.994 321.651 175.191 321.23 175.759C321.093 175.942 321 176.156 320.853 176.332C320.398 176.879 319.59 176.904 318.957 177.217C318.45 177.462 318.039 177.919 317.502 178.063C317.18 178.141 316.849 178.167 316.519 178.14L313.192 178.038C312.137 178.007 310.902 178.063 310.289 178.944C310.09 179.267 309.948 179.624 309.871 179.997C309.615 181.005 309.406 182.146 309.943 183.031C310.587 184.085 311.997 184.299 313.212 184.369C317.907 184.635 322.614 184.542 327.295 184.088C327.929 184.005 328.568 183.978 329.206 184.007C329.712 184.049 330.209 184.165 330.708 184.253C333.231 184.692 335.812 184.436 338.359 184.176C338.79 184.155 339.214 184.062 339.616 183.902C339.815 183.818 339.992 183.686 340.131 183.517C340.27 183.347 340.367 183.146 340.413 182.929C340.519 182.206 339.859 181.592 339.787 180.865C339.735 180.352 339.975 179.78 339.701 179.344C339.599 179.216 339.484 179.098 339.359 178.993C338.9 178.505 338.767 177.792 338.654 177.125L338.055 173.519C338.038 173.265 337.936 173.024 337.767 172.838C337.641 172.745 337.496 172.684 337.343 172.659C334.734 172.055 332.061 172.606 329.469 172.943C328.136 173.144 326.786 173.213 325.44 173.15C324.858 173.112 324.632 173.042 324.197 173.431C323.763 173.821 323.53 174.316 322.986 174.643Z" fill="#3F3D56"/>
<path d="M386.785 179.158C386.325 179.412 385.832 179.603 385.32 179.725C383.969 180.114 382.62 180.52 381.274 180.942C380.916 181.03 380.58 181.189 380.287 181.41C379.819 181.817 379.699 182.482 379.664 183.106C379.62 183.45 379.661 183.799 379.785 184.124C379.946 184.428 380.182 184.687 380.473 184.877C382.014 186.026 384.026 186.382 385.959 186.382C387.893 186.382 389.812 186.06 391.745 186.009C394.081 185.948 396.479 186.274 398.725 185.63C399.154 185.473 399.6 185.366 400.053 185.311C400.355 185.306 400.656 185.325 400.954 185.368C402.159 185.486 403.376 185.376 404.539 185.046C404.889 184.97 405.215 184.81 405.488 184.582C405.624 184.466 405.72 184.313 405.766 184.142C405.811 183.971 405.803 183.791 405.743 183.625C405.619 183.35 405.303 183.15 405.299 182.848C405.315 182.703 405.354 182.562 405.413 182.428C405.554 181.963 405.327 181.478 405.168 181.02C404.725 179.711 404.797 178.205 404.002 177.069C403.208 175.933 401.749 175.465 400.363 175.285C399.236 175.128 398.09 175.161 396.974 175.38C395.719 175.645 394.546 176.198 393.314 176.55C391.885 176.956 390.392 177.095 388.911 176.961C387.927 176.879 388.264 177.032 387.93 177.846C387.694 178.389 387.294 178.847 386.785 179.158Z" fill="#3F3D56"/>
<path d="M331.553 44.5813C336.968 44.5813 341.358 40.1957 341.358 34.7858C341.358 29.3759 336.968 24.9903 331.553 24.9903C326.137 24.9903 321.747 29.3759 321.747 34.7858C321.747 40.1957 326.137 44.5813 331.553 44.5813Z" fill="#FBBEBE"/>
<path d="M403.927 175.047C400.839 177.712 396.67 178.877 392.604 178.918C390.889 178.936 389.108 178.749 387.646 177.857C387.543 177.291 387.502 176.681 387.399 176.116C385.625 175.743 384.249 174.292 383.392 172.685C382.534 171.079 382.098 169.293 381.46 167.59C380.485 164.998 379.058 162.609 377.631 160.237C376.32 158.051 375.006 155.859 373.513 153.794C372.525 152.415 371.455 151.118 370.477 149.743C367.706 145.914 365.718 141.572 364.627 136.967C364.46 136.084 364.222 135.216 363.916 134.371C363.326 132.93 362.245 131.758 361.412 130.444C360.512 129.027 359.896 127.448 359.596 125.794C359.428 124.856 359.14 123.843 358.203 123.746C356.234 127.59 354.227 131.496 351.248 134.623C350.78 135.074 350.352 135.566 349.969 136.091C349.661 136.602 349.386 137.132 349.145 137.677C348.683 138.655 348.069 139.554 347.327 140.339C346.704 141.008 345.883 141.457 344.987 141.621C345.648 144.933 345.254 148.371 343.861 151.446C343.446 152.356 342.948 153.225 342.557 154.145C340.958 157.937 341.329 162.216 341.161 166.328C341.146 167.19 341.045 168.048 340.859 168.89C340.444 170.572 339.586 172.361 340.001 174.044C335.698 175.695 330.919 175.592 326.362 174.895C325.471 174.813 324.606 174.549 323.82 174.12C323.173 173.66 322.61 173.093 322.152 172.444C321.976 172.255 321.845 172.027 321.771 171.779C321.593 170.993 322.457 170.4 322.859 169.71C323.26 169.021 323.332 167.928 322.78 167.363C323.055 162.85 324.297 158.444 324.571 153.918C324.681 152.125 324.636 150.326 324.719 148.53C324.801 146.733 324.993 144.986 325.192 143.221C325.645 139.191 326.743 135.24 326.589 131.189C326.542 129.942 326.827 128.706 327.416 127.607C327.912 126.773 328.474 125.979 329.097 125.235C331.204 122.502 333.736 119.761 334.487 116.386C334.875 114.645 335.733 113.052 336.584 111.487C337.088 110.553 337.613 109.598 338.416 108.912C338.853 108.608 339.258 108.262 339.627 107.878C340.19 107.15 340.21 106.154 340.543 105.285C340.715 104.837 340.979 104.424 341.106 103.962C341.211 103.451 341.262 102.931 341.26 102.41C341.37 100.742 342.008 99.1284 342.681 97.6012C341.099 96.6812 339.703 95.4722 338.563 94.0366C338.181 93.5704 337.847 93.0655 337.568 92.5301C336.862 91.1304 336.7 89.5343 336.367 88.0002C335.575 84.3391 333.753 80.8951 333.499 77.1547C333.423 76.0136 333.499 74.8346 333.104 73.7556C332.922 73.2989 332.709 72.8554 332.466 72.4283C332.227 72.0087 332.045 71.5589 331.924 71.0907C331.704 70.0737 332.006 69.0223 331.924 67.9881C331.842 67.0745 331.454 66.2196 331.262 65.3267C331.066 64.165 331.032 62.9814 331.162 61.8103C331.248 60.4314 331.547 59.0076 331.43 57.6459C331.241 55.3926 331.527 53.1246 332.269 50.9897C333.011 48.8549 334.192 46.9011 335.736 45.256L335.815 45.1767C336.47 44.4872 337.187 43.877 337.778 43.1461C338.581 42.1671 339.15 41.0157 339.998 40.0642C340.368 39.6402 340.787 39.2609 341.154 38.8335C341.491 38.3851 341.864 37.9654 342.269 37.5786C342.474 37.3873 342.723 37.2492 342.993 37.1765C343.263 37.1038 343.547 37.0986 343.82 37.1615C343.889 37.6756 344.049 38.1731 344.293 38.6301C345.007 38.6852 345.642 38.7852 346.352 38.8404C346.681 38.8561 347.008 38.9069 347.327 38.992C347.996 39.1954 348.531 39.6815 349.104 40.0986C350.531 41.1087 352.285 41.5776 353.688 42.6187C355.747 44.1528 356.776 46.6866 358.018 48.9585C359.662 52.0025 362.341 54.5915 363.508 57.8458L365.117 62.2723C366.171 65.1612 367.224 68.0605 368.651 70.7839C370.638 74.576 373.328 77.9924 374.923 81.9604C375.083 82.3583 375.379 82.686 375.757 82.8843C377.93 85.9456 379.86 89.173 381.532 92.537C382.414 94.3158 383.247 96.1636 383.501 98.1321C383.875 100.914 383.121 103.727 382.071 106.327C381.901 106.699 381.785 107.093 381.727 107.499C381.659 108.157 381.909 108.805 381.978 109.464C382.044 110.079 381.953 110.7 381.714 111.27C381.5 111.671 381.32 112.088 381.175 112.518C380.99 113.311 381.319 114.118 381.498 114.911C382.101 117.596 381.992 120.378 381.841 123.129C381.762 124.508 382.87 125.601 383.793 126.611C385.509 128.504 386.847 130.717 388.14 132.927C388.844 134.047 389.437 135.234 389.911 136.471C390.401 137.881 390.597 139.373 390.868 140.838C391.74 145.358 394.594 149.353 395.37 153.887C395.729 155.964 396.645 157.903 398.019 159.496C398.433 159.927 398.815 160.387 399.161 160.875C399.398 161.261 399.587 161.676 399.724 162.109C400.061 163.115 400.22 164.174 400.194 165.236C400.14 165.744 400.169 166.257 400.28 166.756C400.602 167.807 401.755 168.387 402.229 169.376C402.702 170.365 402.376 171.634 402.572 172.758C402.72 173.665 403.204 174.483 403.927 175.047Z" fill="#DAA658"/>
<path d="M299.541 79.8451C298.389 80.4366 297.163 81.0422 295.875 80.9577C294.716 80.8838 293.659 80.2535 292.788 79.4825C292.086 78.8699 291.362 78.1059 290.439 78.1693C289.821 78.2115 289.301 78.6305 288.823 79.0283L286.277 81.1654C285.849 81.4542 285.525 81.8741 285.354 82.3625C285.304 82.6939 285.324 83.0323 285.413 83.3553C285.529 83.9257 285.723 84.5911 286.27 84.7848C286.818 84.9784 287.415 84.563 287.995 84.4045C288.348 84.3138 288.72 84.3205 289.071 84.424C289.421 84.5275 289.737 84.7239 289.986 84.9925C290.193 85.1965 290.318 85.4697 290.337 85.76C290.337 86.3973 289.634 86.8162 288.988 86.8479C288.342 86.8796 287.724 86.6684 287.085 86.7071C287.046 86.7022 287.007 86.7051 286.97 86.7156C286.932 86.7261 286.897 86.7441 286.867 86.7683C286.837 86.7926 286.811 86.8228 286.793 86.857C286.774 86.8912 286.762 86.9288 286.758 86.9676C286.719 87.19 286.736 87.4188 286.807 87.633C286.879 87.8471 287.004 88.0397 287.169 88.1929C287.503 88.4982 287.891 88.7371 288.314 88.897C288.805 89.1405 289.335 89.2954 289.88 89.3547C290.958 89.4251 291.949 88.8266 292.97 88.478C294.347 88.0133 295.829 87.9992 297.283 88.0027C298.736 88.0062 300.211 88.0274 301.605 87.619C303 87.2106 304.323 86.3057 304.868 84.9573C304.932 84.8315 304.953 84.6879 304.927 84.5489C304.873 84.4006 304.769 84.276 304.632 84.1968C302.673 82.7427 301.879 80.9753 299.674 79.9296L299.541 79.8451Z" fill="#FBBEBE"/>
<path d="M326.77 28.6015C326.167 28.6995 325.654 29.1091 325.081 29.3366C324.697 29.4862 324.286 29.5524 323.874 29.5307C323.463 29.509 323.061 29.3998 322.694 29.2106C322.439 29.086 322.215 28.9039 322.042 28.6785C321.574 28.0275 321.738 27.0824 322.024 26.3194C323.378 22.7107 326.994 20.4775 330.574 20.334C334.155 20.1905 337.638 21.8671 340.461 24.2648C341.301 24.9566 342.054 25.7475 342.705 26.6204C344.178 28.668 344.844 31.2827 345.04 33.8728C345.157 34.9598 345.085 36.0588 344.827 37.121C344.703 37.6372 344.477 38.1231 344.161 38.5495C343.846 38.9759 343.448 39.3341 342.991 39.6027C341.993 40.1137 340.796 39.9527 339.788 39.4627C338.779 38.9727 337.913 38.1991 337.048 37.4606C336.656 37.0814 336.192 36.785 335.683 36.589C335.43 36.4984 335.156 36.4833 334.894 36.5454C334.632 36.6075 334.394 36.7442 334.207 36.939C333.74 37.5026 333.858 38.4266 333.433 39.0392C333.007 39.6517 332.12 39.7392 331.374 39.7392C330.627 39.7392 329.869 39.6762 329.423 39.0812C329.014 38.5421 329.074 37.7546 329.227 37.0755C329.381 36.3965 329.643 35.7245 329.576 35.0279C329.433 33.6278 328.212 32.7668 327.831 31.4787C327.584 30.6351 328.128 30.2781 328.072 29.5151C328.03 28.843 327.311 28.514 326.77 28.6015Z" fill="#3F3D56"/>
<path d="M358.168 123.816V123.901C356.241 127.715 354.277 131.591 351.362 134.693C350.904 135.141 350.485 135.629 350.11 136.151C349.809 136.657 349.54 137.183 349.304 137.724C348.852 138.695 348.252 139.586 347.525 140.365L345.094 141.603L352.816 100.555L358.168 123.816Z" fill="#CD9F59"/>
<path d="M346.223 61.1834C345.569 61.9148 344.844 62.5744 344.06 63.1521C341.873 64.8729 339.753 66.4973 337.629 68.3145C335.917 69.7623 334.181 71.1802 332.42 72.5684C332.189 72.1494 332.013 71.7003 331.897 71.233C331.685 70.2177 331.976 69.168 331.897 68.1355C331.817 67.2235 331.443 66.37 331.257 65.4786C331.068 64.3188 331.036 63.1372 331.161 61.9681C331.244 60.5915 331.532 59.1701 331.42 57.8106C331.236 55.5557 331.514 53.286 332.234 51.1502C332.954 49.0144 334.1 47.0608 335.598 45.4173L335.674 45.3382C336.031 45.1228 336.408 44.9474 336.8 44.815C337.378 44.6046 337.995 44.5349 338.603 44.6113C339.21 44.6876 339.793 44.9081 340.306 45.2556C342.107 46.6354 343.713 48.2713 345.077 50.1151C345.826 50.9925 346.498 51.9382 347.085 52.9407C347.739 54.2498 348.007 55.7308 347.854 57.1974C347.7 58.664 347.133 60.0508 346.223 61.1834Z" fill="black"/>
<path d="M340.006 43.3819C339.471 43.0355 338.864 42.8169 338.232 42.7431C337.6 42.6693 336.959 42.7423 336.36 42.9564C335.159 43.3906 334.082 44.1114 333.22 45.0566C332.36 45.9372 331.615 46.9244 331.004 47.9943C330.418 49.0323 329.97 50.1188 329.384 51.1534C328.35 53.0045 326.999 54.6377 325.642 56.2571C324.797 57.2639 323.942 58.2847 322.86 59.0252C321.778 59.7656 320.568 60.2189 319.834 61.2465C319.603 61.5718 319.438 61.9386 319.211 62.2673C318.49 63.3261 317.267 63.8935 316.202 64.6029C313.148 66.6443 311.249 70.0422 308.396 72.357C307.165 73.3535 305.776 74.1355 304.567 75.1528C303.44 76.0974 302.499 77.2288 301.375 78.1977C300.252 79.1665 298.932 79.9658 297.467 80.0558C298.446 82.246 299.614 84.3948 301.293 86.1006C302.971 87.8064 305.487 88.8964 307.779 88.2286C308.592 87.9933 309.388 87.495 309.698 86.7061C309.796 86.3006 309.932 85.9055 310.105 85.5262C310.335 85.2217 310.634 84.9763 310.977 84.81C320.177 79.4182 328.947 73.3182 337.208 66.5648C339.424 64.7517 341.622 63.1289 343.897 61.3746C344.713 60.7938 345.467 60.1306 346.148 59.3954C347.096 58.2581 347.689 56.8645 347.851 55.39C348.012 53.9155 347.737 52.4259 347.057 51.1084C346.448 50.1005 345.749 49.1497 344.969 48.2676C343.551 46.4138 341.88 44.7692 340.006 43.3819Z" fill="#DAA658"/>
<path d="M331.886 38.2178C331.195 38.2178 330.396 38.1556 329.954 37.5686C329.553 37.0368 329.608 36.2598 329.76 35.5899C329.912 34.92 330.172 34.2569 330.106 33.5698C329.964 32.1885 328.754 31.339 328.378 30.0682C328.132 29.2359 328.671 28.8837 328.616 28.1309C328.568 27.4782 327.859 27.1536 327.323 27.24C326.725 27.3367 326.217 27.7407 325.65 27.9651C325.27 28.1128 324.862 28.1781 324.455 28.1567C324.047 28.1352 323.649 28.0276 323.286 27.8408C323.033 27.718 322.811 27.5383 322.639 27.3159C322.176 26.6736 322.339 25.7413 322.622 24.9885C322.622 24.9608 322.646 24.9367 322.657 24.909C322.368 25.3711 322.124 25.8603 321.931 26.3698C321.647 27.1226 321.485 28.0549 321.948 28.6972C322.12 28.9196 322.341 29.0993 322.594 29.2221C322.957 29.4089 323.356 29.5165 323.763 29.538C324.171 29.5594 324.578 29.4941 324.959 29.3464C325.526 29.122 326.034 28.718 326.632 28.6213C327.168 28.5349 327.876 28.8595 327.925 29.5122C327.98 30.265 327.441 30.6172 327.686 31.4495C328.056 32.7203 329.266 33.5836 329.415 34.951C329.484 35.6417 329.231 36.3047 329.069 36.9712C328.907 37.6377 328.862 38.4181 329.263 38.9499C329.705 39.5369 330.497 39.5922 331.195 39.5991C331.893 39.606 332.792 39.5577 333.234 38.9085C333.425 38.5824 333.551 38.2223 333.604 37.8483C333.134 38.1833 332.477 38.2247 331.886 38.2178Z" fill="black"/>
<path d="M343.394 38.0932C342.405 38.5974 341.219 38.4386 340.22 37.9551C339.221 37.4716 338.364 36.7085 337.507 35.9798C337.118 35.6057 336.659 35.3134 336.155 35.12C335.904 35.0306 335.632 35.0157 335.373 35.0769C335.114 35.1382 334.877 35.2731 334.693 35.4653C334.458 35.812 334.31 36.2099 334.261 36.6256C334.441 36.5198 334.641 36.4536 334.848 36.4316C335.056 36.4096 335.266 36.4322 335.464 36.4978C335.967 36.6912 336.427 36.9836 336.815 37.3577C337.673 38.0863 338.544 38.8529 339.529 39.3329C340.514 39.8129 341.714 39.9752 342.702 39.4711C343.577 38.9599 344.214 38.1247 344.476 37.147C344.191 37.5404 343.821 37.864 343.394 38.0932Z" fill="black"/>
<path d="M257.311 186.383C262.984 186.383 267.583 181.788 267.583 176.121C267.583 170.453 262.984 165.859 257.311 165.859C251.638 165.859 247.039 170.453 247.039 176.121C247.039 181.788 251.638 186.383 257.311 186.383Z" fill="#3F3D56"/>
<path d="M257.311 186.383C262.984 186.383 267.583 181.788 267.583 176.121C267.583 170.453 262.984 165.859 257.311 165.859C251.638 165.859 247.039 170.453 247.039 176.121C247.039 181.788 251.638 186.383 257.311 186.383Z" fill="black"/>
<path d="M257.311 182.651C260.921 182.651 263.848 179.727 263.848 176.121C263.848 172.514 260.921 169.59 257.311 169.59C253.701 169.59 250.774 172.514 250.774 176.121C250.774 179.727 253.701 182.651 257.311 182.651Z" fill="#65617D"/>
<path d="M257.311 182.651C260.921 182.651 263.848 179.727 263.848 176.121C263.848 172.514 260.921 169.59 257.311 169.59C253.701 169.59 250.774 172.514 250.774 176.121C250.774 179.727 253.701 182.651 257.311 182.651Z" fill="black"/>
<path d="M249.84 160.34L256.456 175.35C256.555 175.575 256.715 175.767 256.919 175.904C257.123 176.04 257.361 176.115 257.606 176.12C257.851 176.125 258.092 176.06 258.301 175.932C258.51 175.804 258.679 175.618 258.786 175.398L266.65 159.328L249.84 160.34Z" fill="#3F3D56"/>
<path d="M249.84 160.34L256.456 175.35C256.555 175.575 256.715 175.767 256.919 175.904C257.123 176.04 257.361 176.115 257.606 176.12C257.851 176.125 258.092 176.06 258.301 175.932C258.51 175.804 258.679 175.618 258.786 175.398L266.65 159.328L249.84 160.34Z" fill="black"/>
<path d="M152.719 186.383C158.392 186.383 162.991 181.788 162.991 176.121C162.991 170.453 158.392 165.859 152.719 165.859C147.045 165.859 142.446 170.453 142.446 176.121C142.446 181.788 147.045 186.383 152.719 186.383Z" fill="#3F3D56"/>
<path d="M150.851 186.383C156.524 186.383 161.123 181.788 161.123 176.121C161.123 170.453 156.524 165.859 150.851 165.859C145.177 165.859 140.578 170.453 140.578 176.121C140.578 181.788 145.177 186.383 150.851 186.383Z" fill="black"/>
<path d="M152.719 182.651C156.329 182.651 159.256 179.727 159.256 176.121C159.256 172.514 156.329 169.59 152.719 169.59C149.108 169.59 146.182 172.514 146.182 176.121C146.182 179.727 149.108 182.651 152.719 182.651Z" fill="#65617D"/>
<path d="M150.851 182.651C154.461 182.651 157.388 179.727 157.388 176.121C157.388 172.514 154.461 169.59 150.851 169.59C147.241 169.59 144.314 172.514 144.314 176.121C144.314 179.727 147.241 182.651 150.851 182.651Z" fill="black"/>
<path d="M144.314 160.34L151.298 175.35C151.402 175.575 151.571 175.767 151.786 175.904C152.001 176.04 152.253 176.115 152.511 176.12C152.77 176.125 153.025 176.06 153.245 175.932C153.466 175.804 153.644 175.618 153.757 175.398L162.057 159.328L144.314 160.34Z" fill="#3F3D56"/>
<path d="M143.38 160.34L149.996 175.35C150.095 175.575 150.255 175.767 150.459 175.904C150.663 176.04 150.901 176.115 151.146 176.12C151.391 176.125 151.632 176.06 151.841 175.932C152.05 175.804 152.218 175.618 152.326 175.398L160.189 159.328L143.38 160.34Z" fill="black"/>
<path d="M290.907 86.0609C290.88 85.7993 290.79 85.549 290.646 85.3329C290.501 85.1169 290.307 84.9421 290.08 84.8245C289.89 84.74 289.685 84.6963 289.477 84.6959C289.27 84.6955 289.065 84.7385 288.874 84.8223C288.683 84.9061 288.511 85.0289 288.366 85.1836C288.222 85.3382 288.109 85.5215 288.034 85.7224L282.318 100.48L280.658 166.791H283.315L284.311 100.622L290.768 87.0625C290.915 86.7523 290.964 86.4017 290.907 86.0609Z" fill="#3F3D56"/>
<path d="M129.372 161.194L141.979 155.501L278.089 154.664L281.591 161.194H129.372Z" fill="#1A1E2E"/>
<path d="M129.372 167.724V161.194L283.459 160.261L283.31 164.556H132.163V167.724H129.372Z" fill="#3F3D56"/>
<path d="M141.512 190.114C147.185 190.114 151.785 185.52 151.785 179.852C151.785 174.185 147.185 169.59 141.512 169.59C135.839 169.59 131.24 174.185 131.24 179.852C131.24 185.52 135.839 190.114 141.512 190.114Z" fill="#3F3D56"/>
<path d="M141.512 186.383C145.123 186.383 148.049 183.459 148.049 179.852C148.049 176.246 145.123 173.322 141.512 173.322C137.902 173.322 134.975 176.246 134.975 179.852C134.975 183.459 137.902 186.383 141.512 186.383Z" fill="#65617D"/>
<path d="M134.041 164.072L140.658 179.082C140.756 179.307 140.917 179.499 141.12 179.635C141.324 179.772 141.562 179.847 141.807 179.852C142.052 179.857 142.293 179.792 142.503 179.663C142.712 179.535 142.88 179.35 142.987 179.129L150.851 163.06L134.041 164.072Z" fill="#3F3D56"/>
<path d="M263.848 190.114C269.521 190.114 274.12 185.52 274.12 179.852C274.12 174.185 269.521 169.59 263.848 169.59C258.175 169.59 253.576 174.185 253.576 179.852C253.576 185.52 258.175 190.114 263.848 190.114Z" fill="#3F3D56"/>
<path d="M263.848 186.383C267.458 186.383 270.385 183.459 270.385 179.852C270.385 176.246 267.458 173.322 263.848 173.322C260.238 173.322 257.311 176.246 257.311 179.852C257.311 183.459 260.238 186.383 263.848 186.383Z" fill="#65617D"/>
<path d="M255.443 163.195L262.427 179.039C262.531 179.277 262.701 179.48 262.916 179.624C263.131 179.768 263.382 179.847 263.641 179.852C263.899 179.857 264.154 179.788 264.375 179.653C264.595 179.518 264.773 179.322 264.886 179.089L273.187 162.127L255.443 163.195Z" fill="#3F3D56"/>
<path d="M147.788 159.192C148.849 159.192 149.709 158.332 149.709 157.271C149.709 156.211 148.849 155.351 147.788 155.351C146.727 155.351 145.867 156.211 145.867 157.271C145.867 158.332 146.727 159.192 147.788 159.192Z" fill="#618949"/>
<path d="M269.126 159.192C270.187 159.192 271.047 158.332 271.047 157.271C271.047 156.211 270.187 155.351 269.126 155.351C268.065 155.351 267.205 156.211 267.205 157.271C267.205 158.332 268.065 159.192 269.126 159.192Z" fill="#618949"/>
<path d="M183.006 130.546H152.911C151.511 130.545 150.168 129.988 149.178 128.998C148.188 128.008 147.63 126.665 147.629 125.265V104.781C147.63 103.381 148.188 102.039 149.178 101.049C150.168 100.058 151.511 99.5016 152.911 99.5H183.006C184.406 99.5016 185.749 100.058 186.739 101.049C187.73 102.039 188.287 103.381 188.288 104.781V125.265C188.287 126.665 187.73 128.008 186.739 128.998C185.749 129.988 184.406 130.545 183.006 130.546Z" fill="#70A054"/>
<path d="M223.504 130.706H193.409C192.009 130.705 190.666 130.148 189.676 129.158C188.686 128.168 188.129 126.825 188.127 125.425V104.941C188.129 103.541 188.686 102.198 189.676 101.208C190.666 100.218 192.009 99.6615 193.409 99.6599H223.504C224.904 99.6615 226.247 100.218 227.238 101.208C228.228 102.198 228.785 103.541 228.786 104.941V125.425C228.785 126.825 228.228 128.168 227.238 129.158C226.247 130.148 224.904 130.705 223.504 130.706Z" fill="#70A054"/>
<path d="M264.004 130.866H233.909C232.509 130.865 231.166 130.308 230.176 129.318C229.186 128.328 228.629 126.985 228.627 125.585V105.101C228.629 103.701 229.186 102.359 230.176 101.369C231.166 100.379 232.509 99.8216 233.909 99.8201H264.004C265.404 99.8216 266.747 100.379 267.738 101.369C268.728 102.359 269.285 103.701 269.286 105.101V125.585C269.285 126.985 268.728 128.328 267.738 129.318C266.747 130.308 265.404 130.865 264.004 130.866Z" fill="#70A054"/>
<path d="M275.53 129.426H142.986V157.112H275.53V129.426Z" fill="#70A054"/>
<path d="M147.788 157.271H142.025C139.112 157.271 136.742 154.582 136.742 151.275V122.385H147.788V157.271Z" fill="#70A054"/>
<path d="M274.89 157.271H269.127V117.904H280.172V150.505C280.172 154.236 277.803 157.271 274.89 157.271Z" fill="#70A054"/>
<path d="M188.449 135.187H147.789V126.545C161.342 118.773 174.895 118.773 188.449 126.545V135.187Z" fill="#618949"/>
<path d="M228.947 135.347H188.287V126.705C201.84 118.933 215.393 118.933 228.947 126.705V135.347Z" fill="#618949"/>
<path d="M269.447 135.507H228.787V126.865C242.34 119.093 255.893 119.093 269.447 126.865V135.507Z" fill="#618949"/>
<path d="M139.945 129.746C145.161 129.746 149.389 125.519 149.389 120.304C149.389 115.09 145.161 110.862 139.945 110.862C134.728 110.862 130.5 115.09 130.5 120.304C130.5 125.519 134.728 129.746 139.945 129.746Z" fill="#618949"/>
<path d="M278.251 129.426C283.467 129.426 287.696 125.199 287.696 119.984C287.696 114.769 283.467 110.542 278.251 110.542C273.035 110.542 268.807 114.769 268.807 119.984C268.807 125.199 273.035 129.426 278.251 129.426Z" fill="#618949"/>
<defs>
<linearGradient id="paint0_linear_206_42" x1="256.328" y1="192.019" x2="256.328" y2="19.4085" gradientUnits="userSpaceOnUse">
<stop stop-color="#808080" stop-opacity="0.25"/>
<stop offset="0.54" stop-color="#808080" stop-opacity="0.12"/>
<stop offset="1" stop-color="#808080" stop-opacity="0.1"/>
</linearGradient>
</defs>
</svg>
