<svg width="253" height="204" viewBox="0 0 253 204" fill="none" xmlns="http://www.w3.org/2000/svg">
<path d="M144.129 180.474C142.379 178.024 140.011 176.232 137.034 175.561C134.437 174.976 131.768 175.075 129.129 175.096L95.759 175.353C92.9011 175.375 90.1609 177.851 90.2937 180.819C90.4255 183.761 92.6956 186.308 95.759 186.284C105.534 186.209 115.309 186.134 125.084 186.058C127.389 186.041 129.694 185.999 131.999 186.007C132.517 186.008 133.032 186.036 133.549 186.041C133.674 186.043 133.765 186.042 133.828 186.039C133.845 186.044 133.858 186.048 133.879 186.054C134.149 186.128 134.425 186.179 134.697 186.249C134.602 186.252 134.873 186.421 135.009 186.479C135.027 186.516 135.067 186.581 135.134 186.682C135.227 186.856 135.502 187.385 135.513 187.369C135.926 188.414 136.267 189.486 136.533 190.577C137.168 192.985 137.308 193.488 137.399 195.747C137.515 198.6 139.83 201.348 142.865 201.212C145.727 201.084 148.454 198.807 148.33 195.747C148.121 190.59 147.216 184.798 144.129 180.474Z" fill="#E6E6E6"/>
<path d="M97.7206 192.808C97.0938 189.009 96.479 185.208 95.84 181.412C95.1917 177.561 93.8676 174.034 90.8708 171.506C90.07 170.831 89.2398 170.2 88.406 169.572C88.1128 169.351 87.8201 169.13 87.5304 168.904C87.513 168.89 87.502 168.882 87.487 168.87C87.4551 168.843 87.4169 168.81 87.3656 168.767C86.1165 167.709 84.9096 166.605 83.76 165.432C82.7391 164.389 81.7627 163.302 80.831 162.171C80.5982 161.888 80.3683 161.603 80.1415 161.316C80.1025 161.266 79.8923 160.994 79.7539 160.817C79.6251 160.64 79.3898 160.32 79.3503 160.264C79.0852 159.889 78.8249 159.511 78.5694 159.129C76.8287 156.521 75.3214 153.764 74.065 150.891C73.9404 150.606 73.8187 150.319 73.7 150.031C73.6682 149.943 73.627 149.83 73.5723 149.679C73.3191 148.983 73.0664 148.288 72.8349 147.583C72.343 146.087 71.9202 144.568 71.5663 143.027C71.3914 142.267 71.2339 141.502 71.0938 140.734C71.0216 140.338 70.954 139.942 70.8912 139.545C70.8808 139.48 70.8194 139.051 70.7833 138.81C70.7566 138.566 70.7069 138.136 70.7002 138.07C70.6602 137.67 70.6247 137.269 70.5936 136.868C70.5237 135.966 70.4765 135.063 70.4519 134.158C70.4098 132.55 70.4386 130.942 70.5383 129.334C70.595 128.431 70.6757 127.53 70.7751 126.63C70.7811 126.575 70.7858 126.531 70.7901 126.491C70.7961 126.451 70.8031 126.406 70.8115 126.349C70.885 125.852 70.9624 125.355 71.049 124.861C71.3768 122.982 71.8031 121.122 72.3262 119.288C72.5739 118.42 72.8429 117.56 73.1333 116.707C73.2627 116.328 73.3963 115.951 73.5339 115.575C73.5249 115.599 73.9377 114.545 73.9432 114.509C75.5811 110.639 78.26 107.111 78.2637 102.715C78.2662 99.7381 75.7482 96.8868 72.7984 97.0243C71.3277 97.0797 69.9359 97.7039 68.9164 98.7654C67.8969 99.8269 67.3292 101.243 67.3331 102.715C67.3331 102.781 67.3328 102.838 67.3326 102.894C67.3051 102.986 67.2821 103.064 67.2614 103.132C66.942 103.826 66.5507 104.486 66.2001 105.163C65.2401 107.016 64.4207 108.929 63.6423 110.871C62.368 114.032 61.3926 117.307 60.7288 120.65C59.2862 127.976 59.1742 135.503 60.3983 142.868C62.5173 155.786 69.5054 168.151 79.2204 176.462C80.0635 177.183 80.9271 177.88 81.7989 178.563C82.1597 178.846 82.5234 179.123 82.889 179.399C83.0618 179.529 83.7777 180.094 83.4628 179.82C84.1399 180.398 84.425 180.689 84.5989 181.115C84.6241 181.213 84.6585 181.346 84.705 181.528C84.8276 182.008 84.944 182.487 85.0407 182.974C85.8863 187.228 86.4741 191.552 87.1804 195.833C87.666 198.775 91.2869 200.689 93.9035 199.808C96.949 198.782 98.2408 195.96 97.7206 192.808Z" fill="#E6E6E6"/>
<path d="M144.682 203.84C142.387 203.846 140.183 202.941 138.554 201.324C136.925 199.707 136.004 197.51 135.992 195.215V188.98C129.465 189.711 107.114 189.541 100.707 188.512V194.965C100.69 197.259 99.7669 199.453 98.1391 201.068C96.5113 202.684 94.3108 203.591 92.0174 203.591C89.7239 203.591 87.5234 202.684 85.8956 201.068C84.2678 199.453 83.3447 197.259 83.3275 194.965V182.294C74.6499 177.473 67.4159 170.424 62.372 161.873C57.3282 153.323 54.6572 143.581 54.6348 133.653C54.6348 116.631 62.3487 100.752 75.7986 90.0869C84.5437 83.1292 95.1688 78.9449 106.309 78.0714C107.822 77.9528 109.343 77.8927 110.832 77.8927C116.076 77.8927 139.736 78.7029 145.672 80.4109L159.208 66.9783C159.407 66.7781 159.661 66.6418 159.938 66.5866C160.215 66.5314 160.502 66.56 160.762 66.6685C161.025 66.773 161.25 66.9544 161.407 67.1889C161.565 67.4234 161.648 67.7001 161.645 67.9826V70.1183L164.281 67.5077C164.479 67.3074 164.733 67.1708 165.01 67.1155C165.287 67.0603 165.573 67.0888 165.834 67.1975C166.096 67.3019 166.321 67.4833 166.479 67.7179C166.637 67.9525 166.72 68.2293 166.718 68.512V92.3784C173.51 98.5022 178.687 106.207 181.789 114.81C184.892 123.413 185.825 132.649 184.505 141.699C183.185 150.749 179.653 159.333 174.223 166.692C168.792 174.05 161.63 179.955 153.372 183.884V195.215C153.361 197.51 152.439 199.707 150.81 201.324C149.181 202.941 146.977 203.846 144.682 203.84ZM136.676 188.205V195.215C136.693 197.327 137.544 199.347 139.044 200.835C140.543 202.322 142.57 203.157 144.682 203.157C146.794 203.157 148.821 202.322 150.321 200.835C151.82 199.347 152.672 197.327 152.689 195.215V183.452L152.884 183.36C162.15 178.962 170.016 172.082 175.609 163.484C182.736 152.512 185.7 139.351 183.965 126.383C182.229 113.415 175.909 101.497 166.148 92.785L166.034 92.6831V68.512C166.037 68.3652 165.994 68.2211 165.912 68.0992C165.83 67.9773 165.713 67.8834 165.576 67.8303C165.44 67.7721 165.289 67.7564 165.144 67.7852C164.999 67.8141 164.866 67.8861 164.763 67.9919L160.962 71.7566V67.9826C160.964 67.8357 160.922 67.6916 160.84 67.5698C160.758 67.4479 160.64 67.354 160.504 67.3009C160.367 67.2428 160.216 67.2272 160.071 67.2563C159.926 67.2853 159.792 67.3576 159.689 67.4637L145.863 81.1839L145.666 81.1223C140.148 79.3949 116.115 78.5759 110.831 78.5759C109.361 78.5759 107.857 78.6353 106.363 78.7526C95.3578 79.6154 84.8618 83.7489 76.2231 90.6221C62.9375 101.157 55.3179 116.841 55.3179 133.653C55.3406 143.493 57.9973 153.147 63.012 161.613C68.0267 170.079 75.2164 177.047 83.8344 181.795L84.0106 181.892V194.965C84.0283 197.077 84.8796 199.097 86.3792 200.584C87.8788 202.072 89.9053 202.906 92.0173 202.906C94.1294 202.906 96.1558 202.072 97.6555 200.584C99.1551 199.097 100.006 197.077 100.024 194.965V187.694L100.429 187.77C106.186 188.853 130.43 189.024 136.289 188.256L136.676 188.205Z" fill="#3F3D56"/>
<path d="M98.3746 40.6916L60.5479 52.0603C59.3448 52.4234 58.335 53.2492 57.7403 54.3564C57.1456 55.4636 57.0147 56.7616 57.3764 57.9652C57.7381 59.1689 58.5627 60.1797 59.6691 60.7757C60.7755 61.3717 62.0733 61.504 63.2772 61.1437L96.3797 51.1927L97.0732 50.9843C97.2135 47.4105 98.1829 43.9184 99.9049 40.7838C99.6888 40.6866 99.4578 40.6265 99.2217 40.6062C98.9365 40.5786 98.6486 40.6076 98.3746 40.6916Z" fill="#63C2C9"/>
<path d="M62.6233 63.5675C62.1211 63.5663 61.6321 63.4072 61.2252 63.1129C60.8184 62.8186 60.5143 62.4039 60.3559 61.9273L57.9906 54.7891C57.8918 54.491 57.8526 54.1763 57.8755 53.8631C57.8983 53.5499 57.9825 53.2443 58.1235 52.9636C58.2644 52.683 58.4593 52.4329 58.6969 52.2276C58.9345 52.0222 59.2102 51.8657 59.5083 51.767L90.2953 41.5631C90.5934 41.4643 90.908 41.4252 91.2211 41.448C91.5343 41.4707 91.8399 41.555 92.1205 41.6959C92.4011 41.8368 92.6512 42.0316 92.8565 42.2692C93.0619 42.5067 93.2184 42.7824 93.3172 43.0805L95.6825 50.2187C95.8793 50.8059 95.8399 51.4465 95.5726 52.005C95.3052 52.5636 94.831 52.9961 94.2503 53.211C94.2218 53.2217 94.1931 53.2317 94.1641 53.2412L63.3778 63.4447C63.1345 63.5258 62.8797 63.5673 62.6233 63.5675Z" fill="#2F2E41"/>
<path d="M120.28 28.0145C114.066 28.0169 108.097 30.4373 103.636 34.7633C99.1755 39.0893 96.5729 44.9814 96.3793 51.1926C96.3725 51.4352 96.3691 51.6812 96.3691 51.9271C96.3691 56.6566 97.7715 61.2798 100.399 65.2122C103.026 69.1446 106.76 72.2096 111.13 74.0195C115.499 75.8293 120.306 76.3029 124.944 75.3802C129.583 74.4576 133.843 72.1801 137.187 68.8359C140.531 65.4916 142.808 61.2308 143.731 56.5922C144.654 51.9536 144.18 47.1456 142.37 42.7762C140.561 38.4067 137.496 34.6721 133.564 32.0445C129.632 29.417 125.009 28.0145 120.28 28.0145ZM120.28 75.1565C114.121 75.1501 108.217 72.7006 103.863 68.3457C99.5079 63.9907 97.0587 58.086 97.0523 51.9271C97.0523 51.6094 97.0591 51.2951 97.0728 50.9843C97.2578 46.434 98.7761 42.0384 101.439 38.3442C104.102 34.65 107.792 31.8201 112.05 30.2064C116.308 28.5926 120.947 28.2663 125.389 29.2679C129.831 30.2695 133.881 32.5549 137.035 35.8399C140.188 39.1249 142.307 43.2646 143.127 47.7441C143.948 52.2237 143.433 56.8456 141.648 61.035C139.862 65.2244 136.885 68.7966 133.086 71.3074C129.287 73.8181 124.833 75.1566 120.28 75.1565Z" fill="#3F3D56"/>
<path d="M140.433 51.927C140.433 57.2724 138.31 62.3989 134.531 66.1787C130.751 69.9585 125.625 72.0819 120.28 72.0819C114.935 72.0819 109.809 69.9585 106.03 66.1787C102.25 62.3989 100.127 57.2724 100.127 51.927C100.127 51.2882 100.158 50.6597 100.216 50.0379C100.701 44.8791 103.155 40.1054 107.067 36.7083C110.98 33.3111 116.05 31.5513 121.226 31.7944C126.401 32.0375 131.284 34.2648 134.861 38.0138C138.438 41.7627 140.433 46.7453 140.433 51.927Z" fill="#E6E6E6"/>
<path d="M63.7198 92.4979C63.1918 92.4971 62.6788 92.322 62.2604 91.9998C61.842 91.6777 61.5415 91.2265 61.4056 90.7162L60.1178 85.8414C59.9566 85.2287 60.045 84.5771 60.3636 84.0294C60.6822 83.4818 61.2049 83.0829 61.8172 82.9202L102.445 72.1836C103.058 72.0236 103.71 72.113 104.257 72.4321C104.804 72.7513 105.203 73.2743 105.366 73.8866L106.457 78.0166L106.252 78.0325C95.8326 78.8427 85.863 82.6209 77.5229 88.9199L77.4637 88.9486L64.3264 92.4192C64.1285 92.4715 63.9246 92.4979 63.7198 92.4979Z" fill="#2F2E41"/>
<path d="M56.9915 116.577C52.2256 115.872 47.6676 114.149 43.6281 111.523C41.6269 110.224 39.7742 108.708 38.1034 107.005C36.4543 105.322 34.8767 103.41 34.0599 101.17C33.274 99.0975 33.3145 96.8021 34.173 94.7584C35.0198 92.7273 36.6375 91.1149 38.6712 90.2746C40.7171 89.4587 43.189 89.3714 45.1802 90.265C46.129 90.6809 46.95 91.3419 47.559 92.18C47.8421 92.5664 48.0517 93.0016 48.1774 93.4638C48.294 93.8827 48.3046 94.324 48.2083 94.748C48.0915 95.1713 47.8856 95.5647 47.6044 95.9019C47.3231 96.239 46.973 96.5122 46.5776 96.703C45.7073 97.1495 44.7643 97.4371 43.793 97.5523C42.816 97.6856 41.4126 97.8068 40.6272 97.0225C40.4656 96.8673 40.3384 96.6798 40.254 96.4722C40.195 96.3133 40.1748 96.1425 40.1951 95.9741C40.1837 96.0483 40.2425 95.8128 40.2392 95.8222C40.2268 95.857 40.173 95.9419 40.2494 95.8115C40.2733 95.7685 40.2999 95.7271 40.329 95.6875C40.3031 95.721 40.2461 95.7771 40.3479 95.6809C40.432 95.5889 40.5402 95.5221 40.6602 95.4881C40.7075 95.4743 40.7554 95.4634 40.8028 95.4504C40.9233 95.4175 40.6827 95.4522 40.806 95.4483C40.8536 95.4468 40.9017 95.4479 40.9491 95.4458C41.0701 95.4404 40.8298 95.4128 40.9457 95.4419C40.9907 95.4533 41.0353 95.4643 41.0796 95.4783C41.176 95.5086 41.0114 95.4076 41.0767 95.4832C41.1532 95.5719 40.9963 95.397 41.0833 95.4828C41.1266 95.5253 41.1674 95.5703 41.2055 95.6175C41.3563 95.7664 41.5597 95.8499 41.7717 95.8499C41.9836 95.8499 42.187 95.7664 42.3378 95.6175C42.4835 95.465 42.5648 95.2622 42.5648 95.0513C42.5648 94.8404 42.4835 94.6376 42.3378 94.4851C41.5483 93.5063 39.9888 93.7481 39.1901 94.5754C38.1715 95.6304 38.5748 97.3025 39.5656 98.2231C40.6873 99.2652 42.2759 99.3377 43.7187 99.1629C44.938 99.0461 46.1263 98.7103 47.2264 98.1715C48.3195 97.6344 49.1745 96.7107 49.6257 95.5794C49.8294 94.9756 49.9026 94.3354 49.8404 93.7012C49.7782 93.067 49.582 92.4533 49.2648 91.9006C47.991 89.5055 45.3532 88.2776 42.746 88.0649C41.4037 87.9598 40.0538 88.1219 38.7745 88.5419C37.4953 88.9619 36.312 89.6314 35.2931 90.5118C33.3294 92.2798 32.1202 94.735 31.9155 97.3696C31.6879 100.101 32.7476 102.754 34.2927 104.958C35.9101 107.198 37.8402 109.194 40.0242 110.886C44.2937 114.295 49.3019 116.657 54.6479 117.784C55.2838 117.915 55.9231 118.027 56.5658 118.121C56.7703 118.17 56.986 118.14 57.169 118.036C57.352 117.932 57.4885 117.763 57.5507 117.562C57.6056 117.357 57.5777 117.139 57.4731 116.954C57.3684 116.77 57.1954 116.634 56.9915 116.577Z" fill="#3F3D56"/>
<path d="M133.296 81.7748C126.313 81.6763 119.353 81.8535 112.414 82.3065C110.042 82.4614 107.99 83.2997 107.99 84.7087C107.99 85.8868 110.026 87.2669 112.414 87.1109C119.349 86.658 126.31 86.4808 133.296 86.5792C138.991 86.6596 138.988 81.8552 133.296 81.7748Z" fill="#CCCCCC"/>
<path d="M122.976 86.3413C122.221 86.3413 104.494 86.3131 104.494 83.8643C104.494 81.4156 122.221 81.3875 122.976 81.3875C123.73 81.3875 141.457 81.4156 141.457 83.8643C141.457 86.3131 123.73 86.3413 122.976 86.3413ZM105.187 83.8643C105.672 84.6067 112.188 85.6581 122.976 85.6581C133.763 85.6581 140.279 84.6067 140.764 83.8643C140.279 83.122 133.763 82.0707 122.976 82.0707C112.188 82.0707 105.672 83.122 105.187 83.8643Z" fill="#3F3D56"/>
<path d="M179.218 150.717C183.143 150.608 188.026 150.472 191.789 147.724C192.909 146.872 193.83 145.785 194.486 144.539C195.142 143.294 195.518 141.92 195.587 140.515C195.664 138.344 194.88 136.449 193.379 135.181C191.414 133.52 188.544 133.13 185.452 134.039L188.656 110.623L186.304 110.3L182.537 137.83L184.501 136.928C186.779 135.884 189.904 135.352 191.847 136.994C192.324 137.423 192.695 137.956 192.933 138.552C193.17 139.149 193.267 139.791 193.215 140.431C193.157 141.477 192.875 142.499 192.387 143.427C191.9 144.354 191.218 145.166 190.388 145.806C187.46 147.945 183.568 148.221 179.152 148.344L179.218 150.717Z" fill="#3F3D56"/>
<path d="M172.716 112.642H159.93V115.016H172.716V112.642Z" fill="#3F3D56"/>
<path d="M69.507 103.418C68.9379 103.416 68.388 103.211 67.9559 102.841C67.5238 102.471 67.2376 101.958 67.1488 101.396L66.3683 96.415C66.2708 95.7886 66.4258 95.149 66.7993 94.6367C67.1728 94.1244 67.7343 93.7811 68.3605 93.6823L109.873 87.1773C110.5 87.0798 111.139 87.2348 111.651 87.6083C112.164 87.9818 112.507 88.5433 112.606 89.1695L113.386 94.1509C113.483 94.7773 113.328 95.4169 112.955 95.9292C112.582 96.4415 112.02 96.7847 111.394 96.8836L69.8811 103.388C69.7574 103.408 69.6323 103.418 69.507 103.418Z" fill="#2F2E41"/>
<path d="M52.3268 45.0427C61.948 45.0427 69.7474 37.2426 69.7474 27.6206C69.7474 17.9987 61.948 10.1986 52.3268 10.1986C42.7057 10.1986 34.9062 17.9987 34.9062 27.6206C34.9062 37.2426 42.7057 45.0427 52.3268 45.0427Z" fill="#63C2C9"/>
<path d="M62.1904 32.1285C62.7472 31.9338 63.2558 31.6221 63.682 31.2143C63.9641 30.9236 64.1791 30.5748 64.3122 30.1922C64.4452 29.8097 64.493 29.4027 64.4522 28.9997C64.4285 28.7125 64.3387 28.4346 64.1899 28.1879C64.041 27.9411 63.8371 27.7321 63.5941 27.5772C62.9637 27.1894 62.1306 27.2041 61.2895 27.594L61.1924 20.7933L60.5094 20.8031L60.6235 28.798L61.1435 28.4569C61.7465 28.0621 62.6129 27.7757 63.2362 28.1592C63.3904 28.2607 63.5191 28.3964 63.6122 28.5557C63.7054 28.7151 63.7606 28.8938 63.7735 29.0779C63.8022 29.3782 63.766 29.681 63.6672 29.966C63.5683 30.2509 63.4093 30.5112 63.2009 30.7292C62.4604 31.464 61.3643 31.7102 60.1133 31.9354L60.2343 32.6078C60.8994 32.5068 61.554 32.3464 62.1904 32.1285Z" fill="#2F2E41"/>
<path d="M68.2258 20.316L64.5879 20.8669L64.6902 21.5424L68.3281 20.9914L68.2258 20.316Z" fill="#2F2E41"/>
<path d="M56.7434 22.0547L53.1055 22.6057L53.2077 23.2811L56.8457 22.7302L56.7434 22.0547Z" fill="#2F2E41"/>
<path d="M63.8393 103.113C63.2128 103.112 62.6015 102.92 62.0869 102.562C61.5722 102.205 61.1785 101.7 60.9582 101.113L48.9472 68.9441C47.4792 64.9988 47.6359 60.6322 49.3831 56.8023C51.1303 52.9725 54.3253 49.9921 58.267 48.5152L68.0333 44.8681C68.411 44.7261 68.813 44.6602 69.2162 44.6742C69.6194 44.6882 70.0158 44.7818 70.3827 44.9496C70.7487 45.1132 71.0785 45.348 71.3527 45.6405C71.6269 45.9329 71.84 46.2771 71.9797 46.6529L94.2291 88.6652C94.3735 89.044 94.4416 89.4477 94.4295 89.8529C94.4174 90.2582 94.3252 90.6571 94.1583 91.0266C93.9914 91.3961 93.7531 91.7289 93.4571 92.006C93.1611 92.283 92.8132 92.4988 92.4335 92.6409L64.9136 102.918C64.5701 103.047 64.2062 103.113 63.8393 103.113Z" fill="#2F2E41"/>
<path d="M65.0703 45.9745L87.1463 75.4982L72.2084 46.2844C72.0851 45.9435 71.8958 45.6303 71.6513 45.3626C71.4069 45.0949 71.1121 44.8781 70.7838 44.7243C70.4556 44.5706 70.1002 44.483 69.7381 44.4667C69.376 44.4503 69.0142 44.5055 68.6734 44.629L65.0703 45.9745Z" fill="#E6E6E6"/>
<path d="M100.025 68.396L60.6081 65.8568C59.9868 65.8167 59.3794 65.6547 58.8208 65.38C58.2621 65.1052 57.763 64.7231 57.3519 64.2555C56.9409 63.7878 56.626 63.2437 56.4252 62.6544C56.2244 62.065 56.1417 61.4418 56.1817 60.8205C56.2217 60.1991 56.3837 59.5917 56.6584 59.033C56.9332 58.4743 57.3152 57.9751 57.7829 57.5641C58.2505 57.153 58.7945 56.8381 59.3838 56.6373C59.9731 56.4364 60.5962 56.3537 61.2175 56.3937L100.634 58.9327C100.925 58.9515 101.21 59.0273 101.471 59.156C101.733 59.2846 101.967 59.4636 102.159 59.6826C102.352 59.9016 102.499 60.1564 102.593 60.4324C102.687 60.7084 102.726 61.0003 102.707 61.2912L102.383 66.3229C102.345 66.9105 102.076 67.4591 101.633 67.8479C101.191 68.2367 100.612 68.4338 100.025 68.396Z" fill="#63C2C9"/>
<path d="M89.4913 70.0238C89.4393 70.0238 89.3871 70.0222 89.3348 70.0188L56.9679 67.9338C56.6545 67.9137 56.3482 67.832 56.0664 67.6934C55.7846 67.5549 55.5329 67.3622 55.3256 67.1263C55.1183 66.8905 54.9595 66.6161 54.8582 66.3188C54.7569 66.0216 54.7152 65.7073 54.7354 65.3939L55.2889 56.7997C55.3091 56.4863 55.3908 56.18 55.5294 55.8982C55.668 55.6164 55.8607 55.3646 56.0965 55.1573C56.3324 54.95 56.6068 54.7912 56.904 54.69C57.2013 54.5887 57.5155 54.547 57.8289 54.5672L90.1956 56.6521C90.8282 56.6935 91.4185 56.9842 91.837 57.4603C92.2555 57.9365 92.468 58.5592 92.428 59.1919L91.8746 67.7863C91.8441 68.2469 91.6814 68.6888 91.4059 69.0591C91.1305 69.4294 90.754 69.7123 90.3217 69.8739C90.0561 69.9732 89.7749 70.024 89.4913 70.0238Z" fill="#2F2E41"/>
<path d="M52.126 16.0353C54.4178 14.0641 57.5649 15.8274 60.193 15.5187C62.7075 15.2234 64.6929 12.9678 65.2001 10.5714C65.7919 7.77572 64.3409 4.97481 62.2022 3.23173C59.8598 1.32263 56.7533 0.774567 53.8094 1.12777C50.4354 1.53257 47.3497 3.10545 44.581 5.00794C41.9084 6.78741 39.4507 8.87018 37.2569 11.2147C35.2925 13.3845 33.628 15.9708 33.0966 18.8905C32.6136 21.544 32.9824 24.4844 34.5508 26.7322C35.3826 27.8843 36.4971 28.8026 37.787 29.3986C39.132 30.059 40.5667 30.5312 41.8697 31.278C43.8398 32.4071 45.7546 34.7483 45.1375 37.1847C45.0052 37.7169 44.7441 38.2085 44.3771 38.616C43.9363 39.1055 43.141 38.4587 43.5831 37.968C44.3594 37.1061 44.3288 35.9566 43.9151 34.9276C43.4231 33.768 42.5519 32.81 41.4443 32.2103C40.0804 31.4305 38.5745 30.9491 37.1766 30.2387C35.8385 29.5898 34.6771 28.6272 33.791 27.4328C32.1179 25.1075 31.6174 22.0812 31.9969 19.2817C32.4075 16.2522 33.9639 13.4992 35.915 11.1923C38.0384 8.68163 40.6466 6.55645 43.3111 4.64726C46.1701 2.59869 49.3288 0.866759 52.8241 0.240349C55.854 -0.302651 59.1381 0.0316537 61.7876 1.68294C64.2608 3.2243 66.1572 5.87576 66.3458 8.8385C66.4136 10.1865 66.1209 11.5283 65.4979 12.7256C64.875 13.923 63.9442 14.9327 62.8015 15.6509C61.629 16.3526 60.2657 16.6685 58.9041 16.5539C57.4484 16.4607 55.9913 16.0149 54.5264 16.1386C53.8634 16.1789 53.2317 16.4342 52.7269 16.8658C52.2262 17.2964 51.6294 16.4624 52.126 16.0353Z" fill="#2F2E41"/>
<path d="M106.065 60V42.984H108.753V51.744L116.769 42.96H119.745L113.025 50.496L120.129 60H117.081L111.321 52.2L108.753 54.864V60H106.065ZM121.908 60V42.96H129.324C130.092 42.96 130.796 43.12 131.436 43.44C132.076 43.76 132.628 44.184 133.092 44.712C133.572 45.24 133.94 45.832 134.196 46.488C134.468 47.144 134.604 47.816 134.604 48.504C134.604 49.256 134.468 49.976 134.196 50.664C133.924 51.352 133.532 51.944 133.02 52.44C132.524 52.936 131.94 53.296 131.268 53.52L135.276 60H132.252L128.556 54.072H124.596V60H121.908ZM124.596 51.696H129.3C129.796 51.696 130.236 51.552 130.62 51.264C131.004 50.976 131.308 50.592 131.532 50.112C131.756 49.616 131.868 49.08 131.868 48.504C131.868 47.912 131.74 47.384 131.484 46.92C131.228 46.44 130.892 46.056 130.476 45.768C130.076 45.48 129.636 45.336 129.156 45.336H124.596V51.696Z" fill="#63C2C9"/>
</svg>
