<svg width="76" height="75" viewBox="0 0 76 75" fill="none" xmlns="http://www.w3.org/2000/svg">
<g clip-path="url(#clip0_189_445)">
<path d="M38.0032 6.9393C47.962 6.9393 49.1413 6.98298 53.0579 7.15769C56.6978 7.31785 58.6634 7.92936 59.9737 8.43894C61.7063 9.10869 62.9585 9.92403 64.2543 11.2198C65.5646 12.5302 66.3654 13.7678 67.0352 15.5004C67.5448 16.8107 68.1563 18.7909 68.3164 22.4162C68.4911 26.3473 68.5348 27.5267 68.5348 37.4709C68.5348 47.4297 68.4911 48.609 68.3164 52.5256C68.1563 56.1655 67.5448 58.1311 67.0352 59.4414C66.3654 61.174 65.5501 62.4262 64.2543 63.722C62.9439 65.0323 61.7063 65.8331 59.9737 66.5029C58.6634 67.0125 56.6832 67.624 53.0579 67.7841C49.1268 67.9588 47.9474 68.0025 38.0032 68.0025C28.0444 68.0025 26.8651 67.9588 22.9485 67.7841C19.3086 67.624 17.343 67.0125 16.0327 66.5029C14.3001 65.8331 13.0479 65.0178 11.7521 63.722C10.4418 62.4116 9.64098 61.174 8.97124 59.4414C8.46165 58.1311 7.85014 56.1509 7.68999 52.5256C7.51527 48.5945 7.47159 47.4151 7.47159 37.4709C7.47159 27.5121 7.51527 26.3328 7.68999 22.4162C7.85014 18.7763 8.46165 16.8107 8.97124 15.5004C9.64098 13.7678 10.4563 12.5156 11.7521 11.2198C13.0625 9.90947 14.3001 9.10869 16.0327 8.43894C17.343 7.92936 19.3232 7.31785 22.9485 7.15769C26.8651 6.98298 28.0444 6.9393 38.0032 6.9393ZM38.0032 0.227295C27.8842 0.227295 26.6175 0.270974 22.6428 0.44569C18.6825 0.620406 15.9599 1.26103 13.6012 2.17829C11.1406 3.13923 9.05859 4.40592 6.99112 6.48795C4.90909 8.55542 3.6424 10.6375 2.68146 13.0835C1.7642 15.4567 1.12358 18.1648 0.948864 22.125C0.774148 26.1144 0.730469 27.3811 0.730469 37.5C0.730469 47.619 0.774148 48.8857 0.948864 52.8605C1.12358 56.8207 1.7642 59.5433 2.68146 61.902C3.6424 64.3626 4.90909 66.4446 6.99112 68.5121C9.05859 70.5796 11.1406 71.8608 13.5866 72.8072C15.9599 73.7244 18.668 74.3651 22.6282 74.5398C26.603 74.7145 27.8697 74.7582 37.9886 74.7582C48.1076 74.7582 49.3743 74.7145 53.3491 74.5398C57.3093 74.3651 60.032 73.7244 62.3906 72.8072C64.8367 71.8608 66.9187 70.5796 68.9862 68.5121C71.0536 66.4446 72.3349 64.3626 73.2813 61.9166C74.1985 59.5434 74.8391 56.8353 75.0139 52.875C75.1886 48.9002 75.2323 47.6335 75.2323 37.5146C75.2323 27.3956 75.1886 26.1289 75.0139 22.1541C74.8391 18.1939 74.1985 15.4713 73.2813 13.1126C72.364 10.6375 71.0973 8.55542 69.0153 6.48795C66.9478 4.42048 64.8658 3.13923 62.4198 2.19285C60.0465 1.27559 57.3384 0.634965 53.3782 0.460249C49.3889 0.270974 48.1222 0.227295 38.0032 0.227295Z" fill="white"/>
<path d="M38.0014 18.354C27.4311 18.354 18.8555 26.9296 18.8555 37.5C18.8555 48.0703 27.4311 56.6459 38.0014 56.6459C48.5717 56.6459 57.1474 48.0703 57.1474 37.5C57.1474 26.9296 48.5717 18.354 38.0014 18.354ZM38.0014 49.9193C31.1438 49.9193 25.582 44.3576 25.582 37.5C25.582 30.6424 31.1438 25.0806 38.0014 25.0806C44.859 25.0806 50.4208 30.6424 50.4208 37.5C50.4208 44.3576 44.859 49.9193 38.0014 49.9193Z" fill="white"/>
<path d="M62.3771 17.5968C62.3771 20.0719 60.3679 22.0666 57.9073 22.0666C55.4322 22.0666 53.4375 20.0574 53.4375 17.5968C53.4375 15.1216 55.4467 13.127 57.9073 13.127C60.3679 13.127 62.3771 15.1362 62.3771 17.5968Z" fill="white"/>
</g>
<defs>
<clipPath id="clip0_189_445">
<rect width="74.5455" height="74.5455" fill="white" transform="translate(0.730469 0.227295)"/>
</clipPath>
</defs>
</svg>
