<svg width="75" height="75" viewBox="0 0 75 75" fill="none" xmlns="http://www.w3.org/2000/svg">
<g clip-path="url(#clip0_189_449)">
<path d="M69.3008 0.227295H5.77699C2.73402 0.227295 0.273438 2.62964 0.273438 5.59981V69.3857C0.273438 72.3559 2.73402 74.7728 5.77699 74.7728H69.3008C72.3438 74.7728 74.8189 72.3559 74.8189 69.4002V5.59981C74.8189 2.62964 72.3438 0.227295 69.3008 0.227295ZM22.3896 63.7511H11.3242V28.1673H22.3896V63.7511ZM16.8569 23.3189C13.3043 23.3189 10.4361 20.4507 10.4361 16.9127C10.4361 13.3747 13.3043 10.5064 16.8569 10.5064C20.3949 10.5064 23.2631 13.3747 23.2631 16.9127C23.2631 20.4361 20.3949 23.3189 16.8569 23.3189ZM63.7972 63.7511H52.7464V46.4542C52.7464 42.3338 52.6736 37.0196 46.9954 37.0196C41.2443 37.0196 40.3707 41.5185 40.3707 46.163V63.7511H29.3345V28.1673H39.9339V33.0302H40.0795C41.5501 30.2348 45.1609 27.2791 50.5334 27.2791C61.7298 27.2791 63.7972 34.6463 63.7972 44.2266V63.7511Z" fill="white"/>
</g>
<defs>
<clipPath id="clip0_189_449">
<rect width="74.5455" height="74.5455" fill="white" transform="translate(0.273438 0.227295)"/>
</clipPath>
</defs>
</svg>
